<svg width="1194" height="240" viewBox="0 0 1194 240" fill="none" xmlns="http://www.w3.org/2000/svg">
<path d="M4.13672 48.5H12.3867V236H4.13672V48.5ZM35.3867 -1.63317e-05H45.6367L10.8867 28.75H0.38672L35.3867 -1.63317e-05ZM89.4297 237.5C77.0964 237.5 66.8464 233.75 58.6797 226.25C50.6797 218.75 46.6797 208.417 46.6797 195.25V78.25H54.6797V123.5H89.1797V130.5H54.6797V195.25C54.6797 206.25 57.9297 214.917 64.4297 221.25C71.0964 227.417 79.4297 230.5 89.4297 230.5V237.5ZM163.459 238.75C152.792 238.75 142.876 236.083 133.709 230.75C124.542 225.417 117.292 218.25 111.959 209.25C106.626 200.083 103.959 190.25 103.959 179.75C103.959 169.25 106.626 159.5 111.959 150.5C117.292 141.333 124.542 134.083 133.709 128.75C142.876 123.417 152.792 120.75 163.459 120.75C174.292 120.75 184.542 123.667 194.209 129.5C203.876 135.167 210.626 142.583 214.459 151.75V123.5H222.459V236H214.459V208C209.959 217.333 202.959 224.833 193.459 230.5C184.126 236 174.126 238.75 163.459 238.75ZM163.959 231.75C173.126 231.75 181.626 229.417 189.459 224.75C197.292 219.917 203.459 213.583 207.959 205.75C212.626 197.75 214.959 189.083 214.959 179.75C214.959 170.583 212.626 162 207.959 154C203.292 146 197.042 139.667 189.209 135C181.376 130.167 172.876 127.75 163.709 127.75C154.542 127.75 145.959 130.167 137.959 135C130.126 139.833 123.792 146.25 118.959 154.25C114.292 162.25 111.959 170.833 111.959 180C111.959 189.167 114.292 197.75 118.959 205.75C123.792 213.583 130.209 219.917 138.209 224.75C146.209 229.417 154.792 231.75 163.959 231.75ZM296.764 238.25C288.93 238.25 281.764 236.5 275.264 233C268.764 229.333 263.597 224.25 259.764 217.75C255.93 211.25 254.014 204 254.014 196V48.5H262.014V196C262.014 202.667 263.514 208.667 266.514 214C269.68 219.333 273.93 223.583 279.264 226.75C284.597 229.75 290.43 231.25 296.764 231.25V238.25ZM368.549 240C357.215 240 346.965 237.25 337.799 231.75C328.632 226.083 321.465 218.667 316.299 209.5C311.132 200.167 308.549 190.083 308.549 179.25C308.549 168.583 311.132 158.667 316.299 149.5C321.632 140.333 328.799 133.083 337.799 127.75C346.965 122.25 357.132 119.5 368.299 119.5C379.299 119.5 389.299 122.25 398.299 127.75C407.466 133.083 414.632 140.333 419.799 149.5C424.965 158.667 427.549 168.583 427.549 179.25C427.549 190.417 425.049 200.667 420.049 210C415.049 219.167 408.049 226.5 399.049 232C390.215 237.333 380.049 240 368.549 240ZM368.549 233C378.049 233 386.715 230.583 394.549 225.75C402.382 220.917 408.466 214.5 412.799 206.5C417.299 198.333 419.549 189.417 419.549 179.75C419.549 170.25 417.299 161.417 412.799 153.25C408.299 145.083 402.132 138.583 394.299 133.75C386.465 128.917 377.799 126.5 368.299 126.5C358.799 126.5 350.049 129 342.049 134C334.215 138.833 327.965 145.333 323.299 153.5C318.799 161.667 316.549 170.5 316.549 180C316.549 189.5 318.799 198.333 323.299 206.5C327.965 214.5 334.215 220.917 342.049 225.75C350.049 230.583 358.882 233 368.549 233ZM550.682 239.5C529.848 239.5 513.682 230.917 502.182 213.75V200.25C506.682 210.25 513.182 218.083 521.682 223.75C530.348 229.417 540.682 232.25 552.682 232.25C561.015 232.25 568.682 230.417 575.682 226.75C582.848 223.083 588.515 217.917 592.682 211.25C596.848 204.583 598.932 196.917 598.932 188.25C598.932 180.417 597.598 173.667 594.932 168C592.265 162.333 587.848 156.917 581.682 151.75C575.515 146.417 566.598 140.167 554.932 133L546.932 128C539.598 123.5 533.682 119.5 529.182 116C524.682 112.5 520.765 108.417 517.432 103.75C513.098 97.25 510.932 89.75 510.932 81.25C510.932 69.9167 514.598 61.0833 521.932 54.75C529.265 48.4167 538.598 45.25 549.932 45.25C565.265 45.25 577.432 50.9167 586.432 62.25V75C582.598 68 577.348 62.5 570.682 58.5C564.015 54.5 556.682 52.5 548.682 52.5C540.348 52.5 533.348 55.0833 527.682 60.25C522.015 65.4167 519.182 72.3333 519.182 81C519.182 89.5 521.765 96.8333 526.932 103C532.265 109 541.182 115.583 553.682 122.75C569.015 131.75 580.932 139.917 589.432 147.25C595.432 152.75 599.765 158.833 602.432 165.5C605.265 172.167 606.682 179.583 606.682 187.75C606.682 198.083 604.265 207.167 599.432 215C594.598 222.833 587.932 228.917 579.432 233.25C570.932 237.417 561.348 239.5 550.682 239.5ZM640.229 97.75C637.895 97.75 635.812 96.9167 633.979 95.25C632.312 93.5833 631.479 91.5 631.479 89C631.479 86.6667 632.312 84.6667 633.979 83C635.812 81.3333 637.895 80.5 640.229 80.5C642.562 80.5 644.562 81.3333 646.229 83C648.062 84.6667 648.979 86.6667 648.979 89C648.979 91.5 648.062 93.5833 646.229 95.25C644.562 96.9167 642.562 97.75 640.229 97.75ZM636.229 123.5H644.229V236H636.229V123.5ZM681.504 123.5H689.504V140.5C697.171 127.333 709.504 120.75 726.504 120.75C734.671 120.75 741.754 123.083 747.754 127.75C753.754 132.25 757.921 139.083 760.254 148.25C762.421 140.083 767.171 133.5 774.504 128.5C782.004 123.333 790.421 120.75 799.754 120.75C811.921 120.75 821.337 124.333 828.004 131.5C834.671 138.5 838.004 148.5 838.004 161.5V236H830.004V161.5C830.004 151 827.254 142.75 821.754 136.75C816.421 130.75 809.337 127.75 800.504 127.75C793.837 127.75 787.671 129.417 782.004 132.75C776.337 135.917 771.837 140.25 768.504 145.75C765.171 151.25 763.504 157.333 763.504 164V236H755.504V166C755.504 154 752.671 144.667 747.004 138C741.337 131.167 734.004 127.75 725.004 127.75C719.004 127.75 713.254 129.25 707.754 132.25C702.421 135.25 698.004 139.333 694.504 144.5C691.171 149.5 689.504 155 689.504 161V236H681.504V123.5ZM922.992 240C911.659 240 901.409 237.25 892.242 231.75C883.076 226.083 875.909 218.667 870.742 209.5C865.576 200.167 862.992 190.083 862.992 179.25C862.992 168.583 865.576 158.667 870.742 149.5C876.076 140.333 883.242 133.083 892.242 127.75C901.409 122.25 911.576 119.5 922.742 119.5C933.742 119.5 943.742 122.25 952.742 127.75C961.909 133.083 969.076 140.333 974.242 149.5C979.409 158.667 981.992 168.583 981.992 179.25C981.992 190.417 979.492 200.667 974.492 210C969.492 219.167 962.492 226.5 953.492 232C944.659 237.333 934.492 240 922.992 240ZM922.992 233C932.492 233 941.159 230.583 948.992 225.75C956.826 220.917 962.909 214.5 967.242 206.5C971.742 198.333 973.992 189.417 973.992 179.75C973.992 170.25 971.742 161.417 967.242 153.25C962.742 145.083 956.576 138.583 948.742 133.75C940.909 128.917 932.242 126.5 922.742 126.5C913.242 126.5 904.492 129 896.492 134C888.659 138.833 882.409 145.333 877.742 153.5C873.242 161.667 870.992 170.5 870.992 180C870.992 189.5 873.242 198.333 877.742 206.5C882.409 214.5 888.659 220.917 896.492 225.75C904.492 230.583 913.326 233 922.992 233ZM889.242 104.75C889.242 98.25 890.992 93.1667 894.492 89.5C897.992 85.8333 902.409 84 907.742 84C911.409 84 914.409 84.6667 916.742 86C919.242 87.1667 921.992 89 924.992 91.5C927.159 93.3333 928.992 94.75 930.492 95.75C932.159 96.5833 933.992 97 935.992 97C941.992 97 944.992 93 944.992 85H952.992C952.992 91.5 951.492 96.3333 948.492 99.5C945.492 102.5 941.242 104 935.742 104C932.576 104 929.909 103.417 927.742 102.25C925.576 101.083 922.992 99.25 919.992 96.75C917.659 94.75 915.659 93.3333 913.992 92.5C912.492 91.5 910.659 91 908.492 91C904.992 91 902.242 92.3333 900.242 95C898.242 97.5 897.242 100.75 897.242 104.75H889.242ZM1061.69 232C1070.36 232 1078.61 229.75 1086.44 225.25C1094.28 220.75 1100.78 214.583 1105.94 206.75V219.5C1099.78 226.333 1093.03 231.333 1085.69 234.5C1078.36 237.5 1070.03 239 1060.69 239C1050.36 239 1040.61 236.25 1031.44 230.75C1022.44 225.25 1015.19 217.917 1009.69 208.75C1004.36 199.583 1001.69 189.833 1001.69 179.5C1001.69 168.333 1004.36 158.333 1009.69 149.5C1015.03 140.5 1022.28 133.5 1031.44 128.5C1040.78 123.5 1051.11 121 1062.44 121C1079.78 121 1094.53 127.833 1106.69 141.5L1028.19 219C1033.69 223.5 1039.03 226.833 1044.19 229C1049.36 231 1055.19 232 1061.69 232ZM1009.69 178.75C1009.69 192.583 1014.28 204.417 1023.44 214.25L1096.69 141.5C1091.19 136.667 1085.86 133.25 1080.69 131.25C1075.53 129.083 1069.36 128 1062.19 128C1052.03 128 1042.94 130.25 1034.94 134.75C1027.11 139.083 1020.94 145.083 1016.44 152.75C1011.94 160.417 1009.69 169.083 1009.69 178.75ZM1158.95 238.75C1150.95 238.75 1143.87 237.417 1137.7 234.75C1131.53 231.917 1127.12 228.333 1124.45 224V210.75C1127.62 217.917 1131.95 223.25 1137.45 226.75C1142.95 230.083 1149.95 231.75 1158.45 231.75C1166.62 231.75 1173.2 229.25 1178.2 224.25C1183.2 219.083 1185.7 212.5 1185.7 204.5C1185.7 197.667 1184.28 192.417 1181.45 188.75C1178.62 184.917 1174.03 181.083 1167.7 177.25L1158.2 171.75C1151.37 167.583 1146.2 164.333 1142.7 162C1139.37 159.5 1136.7 156.75 1134.7 153.75C1132.7 150.583 1131.7 146.917 1131.7 142.75C1131.7 136.083 1134.03 130.75 1138.7 126.75C1143.37 122.75 1149.45 120.75 1156.95 120.75C1166.12 120.75 1173.78 122.833 1179.95 127V138C1174.78 131.167 1167.37 127.75 1157.7 127.75C1152.37 127.75 1148.03 129.083 1144.7 131.75C1141.37 134.417 1139.7 137.833 1139.7 142C1139.7 145.667 1140.7 148.917 1142.7 151.75C1144.7 154.417 1147.45 156.917 1150.95 159.25C1154.62 161.583 1160.62 165.083 1168.95 169.75C1177.45 174.583 1183.7 179.583 1187.7 184.75C1191.7 189.75 1193.7 196.333 1193.7 204.5C1193.7 214.833 1190.28 223.167 1183.45 229.5C1176.78 235.667 1168.62 238.75 1158.95 238.75Z" fill="#F4F2EC" fill-opacity="0.3"/>
</svg>
