<svg width="201" height="156" viewBox="0 0 201 156" fill="none" xmlns="http://www.w3.org/2000/svg">
<path d="M66.8665 83.8268V59.1326C66.8502 59.0155 66.8604 58.896 66.8961 58.7836C66.9319 58.6713 66.9923 58.5692 67.0726 58.4855C67.1528 58.4018 67.2507 58.3388 67.3584 58.3014C67.4661 58.2641 67.5807 58.2536 67.6931 58.2706H77.1573C79.2389 58.2706 80.8432 58.834 81.9705 59.9608C83.0977 61.0876 83.6631 62.7384 83.6667 64.9132V66.6034C83.7027 67.6293 83.4184 68.6397 82.8564 69.4824C82.2781 70.2763 81.4688 70.8535 80.5497 71.1276C81.1838 71.1978 81.7928 71.4237 82.327 71.7868C82.8534 72.1413 83.2803 72.6351 83.564 73.2178C83.8889 73.9434 84.0444 74.7388 84.0178 75.5391V78.0068C84.0178 80.1741 83.4542 81.8267 82.327 82.9648C81.1926 84.0916 79.626 84.6551 77.5516 84.6551H67.6931C67.584 84.6699 67.4731 84.6589 67.3686 84.623C67.2641 84.5872 67.1686 84.5273 67.0893 84.4478C67.01 84.3683 66.9488 84.2712 66.9102 84.1637C66.8716 84.0563 66.8567 83.9411 66.8665 83.8268ZM72.3063 68.981H76.3308C76.9936 69.035 77.6525 68.8346 78.1837 68.4176C78.4 68.1729 78.5644 67.8833 78.6658 67.5677C78.7673 67.2522 78.8037 66.9178 78.7725 66.5865V64.9921C78.8101 64.6618 78.7815 64.327 78.6885 64.0089C78.5955 63.6908 78.4402 63.3963 78.2323 63.1441C77.7028 62.7387 77.0499 62.5484 76.3956 62.6088H72.3063C72.2477 62.6004 72.188 62.6063 72.1319 62.626C72.0758 62.6457 72.0248 62.6786 71.9829 62.7223C71.9411 62.7659 71.9095 62.8191 71.8906 62.8776C71.8717 62.9361 71.8661 62.9984 71.8742 63.0596V68.5303C71.8661 68.5914 71.8717 68.6537 71.8906 68.7122C71.9095 68.7707 71.9411 68.8239 71.9829 68.8676C72.0248 68.9112 72.0758 68.9442 72.1319 68.9639C72.188 68.9835 72.2477 68.9894 72.3063 68.981ZM72.3063 80.3337H76.7251C77.3882 80.3903 78.048 80.1897 78.578 79.7703C78.7952 79.5272 78.9605 79.2387 79.0629 78.9241C79.1653 78.6094 79.2026 78.2756 79.1722 77.9449V75.5616C79.2005 75.2378 79.1621 74.9115 79.0597 74.6044C78.9572 74.2974 78.793 74.0167 78.578 73.7813C78.0168 73.3625 77.3322 73.163 76.6441 73.2178H72.3225C72.2639 73.2094 72.2042 73.2153 72.1481 73.235C72.092 73.2547 72.041 73.2876 71.9992 73.3313C71.9573 73.3749 71.9257 73.4281 71.9068 73.4866C71.888 73.5451 71.8823 73.6074 71.8904 73.6686V79.8661C71.8801 79.9269 71.8834 79.9895 71.9002 80.0487C71.9169 80.108 71.9466 80.1624 71.9869 80.2077C72.0272 80.253 72.077 80.288 72.1324 80.3099C72.1879 80.3317 72.2474 80.3399 72.3063 80.3337Z" fill="#F4F2EC"/>
<path d="M96.2047 84.6944H95.2593C93.1814 84.6944 91.577 84.1179 90.4462 82.9648C89.3171 81.838 88.7499 80.1477 88.7499 77.9899V70.4007C88.7499 68.2316 89.2901 66.5752 90.4462 65.4202C91.6022 64.2652 93.1796 63.6962 95.2593 63.6962H104.367C104.945 63.6962 105.237 63.9835 105.237 64.5582V83.8268C105.237 84.3902 104.945 84.6944 104.367 84.6944H101.056C100.943 84.7104 100.828 84.699 100.721 84.661C100.613 84.6229 100.515 84.5594 100.435 84.4753C100.355 84.3912 100.295 84.2888 100.259 84.1763C100.223 84.0638 100.213 83.9441 100.229 83.8268V82.4746H100.067C99.9201 82.8557 99.7008 83.2019 99.4223 83.4923C99.1438 83.7828 98.8119 84.0115 98.4465 84.1648C97.7419 84.4999 96.9789 84.6801 96.2047 84.6944ZM100.229 77.0433V68.7105C100.229 68.4119 100.067 68.2598 99.7538 68.2598H96.048C95.4075 68.1954 94.7686 68.398 94.2708 68.8232C93.8707 69.3532 93.6777 70.0214 93.7306 70.6937V77.7251C93.6834 78.3915 93.876 79.0523 94.2708 79.5787C94.5152 79.7928 94.7987 79.9531 95.1042 80.0499C95.4096 80.1467 95.7306 80.1781 96.048 80.1421H97.5065C98.5869 80.1421 99.3054 79.8378 99.6673 79.235C100.051 78.575 100.246 77.8148 100.229 77.0433Z" fill="#F4F2EC"/>
<path d="M114.539 84.6944H111.19C111.077 84.7105 110.962 84.699 110.855 84.661C110.747 84.6229 110.649 84.5594 110.569 84.4753C110.489 84.3912 110.429 84.2888 110.393 84.1763C110.357 84.0638 110.347 83.9442 110.363 83.8268V64.5807C110.347 64.4636 110.357 64.3441 110.393 64.2317C110.429 64.1194 110.489 64.0173 110.569 63.9336C110.649 63.8499 110.747 63.7869 110.855 63.7496C110.963 63.7123 111.077 63.7017 111.19 63.7187H114.539C114.651 63.7019 114.766 63.7126 114.874 63.7499C114.982 63.7872 115.08 63.8501 115.161 63.9337C115.241 64.0172 115.302 64.1191 115.339 64.2314C115.375 64.3437 115.386 64.4633 115.371 64.5807V65.978H115.527C115.668 65.5888 115.884 65.2344 116.163 64.9375C116.442 64.6406 116.778 64.4078 117.148 64.254C117.858 63.9101 118.629 63.7277 119.411 63.7187H120.832C121.372 63.7187 121.621 64.006 121.621 64.5807V67.3978C121.621 68.0288 121.356 68.2992 120.832 68.2204H118.131C117.051 68.2204 116.332 68.5302 115.97 69.1443C115.588 69.8368 115.401 70.6277 115.43 71.4262V83.8212C115.45 83.9456 115.441 84.0733 115.402 84.1929C115.363 84.3125 115.297 84.4203 115.209 84.5067C115.121 84.5931 115.013 84.6555 114.896 84.6882C114.78 84.721 114.657 84.7231 114.539 84.6944Z" fill="#F4F2EC"/>
<path d="M129.097 84.6944H125.748C125.635 84.7114 125.52 84.7007 125.411 84.6631C125.303 84.6255 125.205 84.5621 125.124 84.4778C125.043 84.3936 124.982 84.2909 124.946 84.1779C124.91 84.0649 124.9 83.9447 124.916 83.8268V64.5807C124.901 64.4633 124.912 64.3437 124.948 64.2314C124.985 64.1191 125.046 64.0172 125.126 63.9337C125.207 63.8501 125.305 63.7872 125.413 63.7499C125.521 63.7126 125.635 63.7019 125.748 63.7187H129.097C129.21 63.7017 129.324 63.7123 129.432 63.7496C129.54 63.7869 129.637 63.8499 129.718 63.9336C129.798 64.0173 129.858 64.1194 129.894 64.2317C129.93 64.3441 129.94 64.4636 129.924 64.5807V65.978H130.086C130.226 65.5886 130.442 65.2341 130.721 64.9372C131 64.6402 131.336 64.4075 131.706 64.254C132.418 63.9106 133.191 63.7282 133.975 63.7187H135.396C135.936 63.7187 136.185 64.006 136.185 64.5807V67.3978C136.185 68.0288 135.92 68.2992 135.396 68.2204H132.695C131.615 68.2204 130.896 68.5302 130.534 69.1443C130.149 69.8358 129.962 70.6274 129.994 71.4262V83.8212C130.014 83.9462 130.005 84.0746 129.966 84.1947C129.927 84.3149 129.86 84.4231 129.771 84.5097C129.682 84.5962 129.574 84.6584 129.456 84.6907C129.339 84.7229 129.215 84.7242 129.097 84.6944Z" fill="#F4F2EC"/>
<path d="M149.085 84.6944H145.579C143.501 84.6944 141.896 84.1179 140.765 82.9648C139.636 81.838 139.069 80.1477 139.069 77.9899V70.4007C139.069 68.2316 139.609 66.5752 140.765 65.4202C141.922 64.2652 143.499 63.6962 145.579 63.6962H149.085C151.137 63.6962 152.731 64.2596 153.876 65.4202C155.021 66.5808 155.594 68.2372 155.594 70.4007V77.9899C155.594 80.1534 155.021 81.8117 153.876 82.9648C152.731 84.1198 151.137 84.6944 149.085 84.6944ZM146.324 80.1872H148.339C148.984 80.2481 149.627 80.0462 150.133 79.6238C150.535 79.1103 150.729 78.4532 150.673 77.7927V70.5867C150.734 69.9186 150.54 69.2523 150.133 68.733C149.62 68.3258 148.98 68.1347 148.339 68.1978H146.324C145.689 68.1301 145.054 68.322 144.552 68.733C144.147 69.2537 143.953 69.9189 144.012 70.5867V77.8265C143.959 78.4867 144.153 79.1427 144.552 79.6576C144.798 79.8668 145.081 80.0232 145.385 80.118C145.689 80.2127 146.008 80.2439 146.324 80.2097V80.1872Z" fill="#F4F2EC"/>
<path d="M167.932 84.6944H160.429C159.888 84.6944 159.64 84.407 159.64 83.8267V81.1956C159.618 80.9707 159.674 80.7451 159.797 80.559C159.884 80.4849 159.986 80.4302 160.094 80.3982C160.203 80.3662 160.317 80.3577 160.429 80.373H167.014C167.501 80.3979 167.986 80.2993 168.429 80.0857C168.599 80.0019 168.741 79.8671 168.838 79.6984C168.934 79.5298 168.98 79.3351 168.969 79.1392V78.9363C168.967 78.741 168.925 78.5484 168.847 78.3708C168.769 78.1933 168.656 78.0347 168.515 77.9053C168.164 77.5688 167.774 77.2792 167.354 77.0433L163.448 74.7896C162.358 74.2316 161.376 73.4675 160.553 72.536C159.85 71.6244 159.493 70.4758 159.548 69.3077C159.548 67.3583 160.034 65.9385 161.007 65.0483C161.979 64.1581 163.502 63.713 165.577 63.713H172.167C172.707 63.713 172.956 64.0004 172.956 64.575V67.2512C172.977 67.4768 172.919 67.7027 172.794 67.8879C172.707 67.9615 172.606 68.016 172.499 68.048C172.391 68.0799 172.278 68.0887 172.167 68.0738H166.673C166.187 68.048 165.701 68.1386 165.253 68.3386C165.1 68.394 164.966 68.4962 164.87 68.6319C164.774 68.7676 164.719 68.9305 164.712 69.0992V69.3077C164.715 69.5148 164.765 69.7183 164.859 69.9008C164.953 70.0833 165.088 70.2393 165.253 70.3556C165.62 70.6525 166.008 70.92 166.414 71.1557L170.395 73.6234C171.187 74.0274 171.925 74.5389 172.589 75.1446C173.095 75.6235 173.491 76.2145 173.75 76.8743C174.005 77.6126 174.126 78.394 174.106 79.1786C174.146 79.9263 174.032 80.6742 173.774 81.3726C173.515 82.071 173.116 82.704 172.605 83.2295C171.627 84.2042 170.066 84.6944 167.932 84.6944Z" fill="#F4F2EC"/>
<path d="M69.9295 98.0077C69.4824 98.0228 69.0392 97.916 68.6438 97.6978C68.3007 97.5027 68.0094 97.222 67.7957 96.8809C67.5823 96.5338 67.4237 96.1534 67.3257 95.754C67.2287 95.3333 67.1797 94.9022 67.1799 94.4695C67.1795 94.042 67.2303 93.6162 67.3311 93.2018C67.4283 92.8012 67.589 92.4204 67.8065 92.075C68.0258 91.7323 68.3179 91.447 68.66 91.2411C69.0498 91.0236 69.4876 90.9168 69.9295 90.9313C70.2984 90.9174 70.6661 90.9826 71.0099 91.1228C71.2793 91.2378 71.5237 91.4083 71.7283 91.6243C71.9024 91.8125 72.0481 92.0271 72.1605 92.2609L71.2962 92.706C71.1988 92.5482 71.0866 92.401 70.9612 92.2665C70.8414 92.14 70.698 92.0403 70.5399 91.9736C70.3506 91.8723 70.1421 91.8165 69.9295 91.8102C69.6357 91.8002 69.3458 91.8826 69.0976 92.0468C68.8721 92.2095 68.6869 92.4258 68.5574 92.6778C68.4195 92.9444 68.3211 93.2313 68.2657 93.5286C68.2063 93.8289 68.1755 94.1346 68.1738 94.4413C68.1755 94.7616 68.2099 95.0808 68.2765 95.3935C68.3376 95.6932 68.4453 95.9806 68.5952 96.2442C68.7292 96.4852 68.9139 96.6913 69.1354 96.8471C69.3737 97.0004 69.6495 97.0787 69.9295 97.0724C70.2235 97.0859 70.5137 96.9989 70.756 96.8245C70.9734 96.6526 71.1569 96.4383 71.2962 96.1935L72.1713 96.5315C72.0541 96.8117 71.8894 97.0674 71.6851 97.2865C71.4797 97.5247 71.2297 97.7165 70.9504 97.8499C70.6236 97.9732 70.2765 98.0268 69.9295 98.0077Z" fill="#F4F2EC"/>
<path d="M75.3315 98.0079C75.0341 98.0227 74.7374 97.9664 74.464 97.8433C74.1907 97.7203 73.9478 97.5338 73.7541 97.2981C73.3456 96.7491 73.1404 96.0651 73.1761 95.3712C73.1712 94.8933 73.2671 94.4202 73.457 93.9852C73.6136 93.6109 73.873 93.2933 74.2024 93.0725C74.5447 92.8477 74.9433 92.7339 75.3477 92.7457C75.7528 92.7351 76.1523 92.8466 76.4983 93.0668C76.8267 93.2849 77.0845 93.601 77.2383 93.9739C77.4204 94.4187 77.5088 94.899 77.4976 95.3825C77.5099 95.8666 77.4195 96.3475 77.2329 96.791C77.0767 97.1639 76.8195 97.4811 76.4929 97.7037C76.1421 97.9202 75.7387 98.0258 75.3315 98.0079ZM75.3315 97.0783C75.5033 97.0852 75.6741 97.0477 75.8287 96.9691C75.9833 96.8904 76.1168 96.7731 76.2174 96.6276C76.448 96.2522 76.5595 95.8107 76.5361 95.3656C76.561 94.9203 76.4493 94.4783 76.2174 94.1035C76.1129 93.9621 75.9787 93.8475 75.8251 93.7687C75.6715 93.6899 75.5026 93.6489 75.3315 93.6489C75.1603 93.6489 74.9914 93.6899 74.8378 93.7687C74.6842 93.8475 74.55 93.9621 74.4455 94.1035C74.2135 94.4803 74.1019 94.9241 74.1268 95.3712C74.1027 95.8146 74.2143 96.2546 74.4455 96.6276C74.5443 96.7762 74.677 96.8968 74.8317 96.9785C74.9864 97.0601 75.1581 97.1002 75.3315 97.0952V97.0783Z" fill="#F4F2EC"/>
<path d="M78.6915 97.9065V92.864H79.6314V93.3711C79.7724 93.1704 79.9577 93.008 80.1716 92.8978C80.3995 92.793 80.6464 92.7411 80.8955 92.7457C81.137 92.7288 81.379 92.7709 81.6022 92.8687C81.8254 92.9666 82.0236 93.1173 82.1811 93.3091C82.5014 93.7855 82.6541 94.3627 82.6133 94.943V97.9234H81.6679V94.9486C81.6922 94.6092 81.6045 94.2712 81.4194 93.9908C81.3312 93.8803 81.2191 93.793 81.0924 93.7363C80.9656 93.6795 80.8278 93.6547 80.6902 93.6641C80.5438 93.6533 80.3969 93.676 80.2598 93.7305C80.1226 93.785 79.9985 93.87 79.8961 93.9796C79.7019 94.2539 79.608 94.5916 79.6314 94.9317V97.9065H78.6915Z" fill="#F4F2EC"/>
<path d="M85.5789 98.0077C85.2278 98.0079 84.881 97.9271 84.5634 97.7711C84.2584 97.6252 83.9903 97.4072 83.7801 97.1345L84.4283 96.571C84.5805 96.7514 84.7638 96.9004 84.9685 97.0105C85.1569 97.1072 85.3636 97.1592 85.5735 97.1626C85.7938 97.1762 86.0132 97.1234 86.2056 97.0105C86.2751 96.9641 86.332 96.8998 86.3708 96.8238C86.4096 96.7479 86.4289 96.6627 86.4271 96.5767C86.4287 96.4606 86.3925 96.3474 86.3244 96.2555C86.2317 96.1373 86.1156 96.0412 85.9841 95.9738C85.7724 95.8617 85.5541 95.7639 85.3305 95.6809C84.9081 95.5391 84.517 95.3112 84.1798 95.0104C84.0664 94.8902 83.9774 94.7475 83.918 94.5907C83.8586 94.4339 83.8301 94.2662 83.8341 94.0977C83.8306 93.9082 83.8711 93.7207 83.9519 93.551C84.0328 93.3813 84.1518 93.2345 84.2987 93.123C84.6463 92.8599 85.0688 92.7269 85.4979 92.7455C85.8216 92.7419 86.1422 92.8111 86.4379 92.9483C86.7187 93.0762 86.968 93.2688 87.1671 93.5117L86.5297 94.0751C86.3986 93.9249 86.2382 93.8054 86.0594 93.7248C85.8806 93.6442 85.6873 93.6042 85.4925 93.6075C85.3039 93.5993 85.1168 93.6462 84.9523 93.7427C84.89 93.7802 84.8385 93.8346 84.8034 93.9C84.7682 93.9654 84.7506 94.0396 84.7524 94.1146C84.7556 94.1956 84.7779 94.2746 84.8175 94.3444C84.8571 94.4142 84.9127 94.4727 84.9793 94.5146C85.2443 94.6869 85.5293 94.8232 85.8274 94.9203C86.1318 95.0242 86.4222 95.1681 86.6918 95.3484C86.8944 95.4789 87.0617 95.6612 87.1779 95.8781C87.2828 96.0903 87.3348 96.3267 87.3292 96.5654C87.3375 96.7691 87.2992 96.9718 87.2175 97.157C87.1357 97.3422 87.0129 97.5044 86.8592 97.6303C86.4861 97.9045 86.0345 98.0376 85.5789 98.0077Z" fill="#F4F2EC"/>
<path d="M90.203 98.0079C89.9594 98.0223 89.7157 97.9791 89.4903 97.8816C89.2649 97.784 89.0635 97.6346 88.9012 97.4445C88.5791 96.9732 88.4262 96.3989 88.469 95.8219V92.864H89.4089V95.8106C89.3838 96.152 89.4715 96.492 89.6574 96.7741C89.7474 96.8837 89.8606 96.9699 89.9882 97.0256C90.1158 97.0814 90.2541 97.1052 90.3921 97.0952C90.5378 97.1067 90.684 97.0843 90.8204 97.0297C90.9568 96.9752 91.0798 96.8898 91.1808 96.7797C91.3763 96.506 91.4703 96.1678 91.4455 95.8275V92.864H92.3854V97.9065H91.4455V97.4445C91.3035 97.6386 91.118 97.7933 90.9053 97.8953C90.6813 97.9836 90.4421 98.022 90.203 98.0079Z" fill="#F4F2EC"/>
<path d="M93.9845 97.9065V91.247L94.9244 90.7906V97.9065H93.9845Z" fill="#F4F2EC"/>
<path d="M97.8577 98.0079C97.7116 98.0186 97.5651 97.9953 97.4287 97.9398C97.2923 97.8843 97.1695 97.7978 97.069 97.6867C96.8687 97.426 96.7703 97.0959 96.7935 96.7627V93.7259H96.0372V92.8639H96.7935V91.2469L97.7388 90.7737V92.8527H98.8949V93.7259H97.7659V96.543C97.7524 96.7052 97.7904 96.8675 97.8739 97.005C97.9169 97.0555 97.9704 97.0949 98.0304 97.1203C98.0903 97.1457 98.1551 97.1564 98.2196 97.1515C98.4831 97.1391 98.7386 97.0535 98.9597 96.9036L98.8517 97.8163C98.7078 97.8935 98.5554 97.9522 98.3979 97.991C98.2189 98.0167 98.0378 98.0223 97.8577 98.0079Z" fill="#F4F2EC"/>
<path d="M101.92 98.0078C101.623 98.0225 101.326 97.9662 101.052 97.8432C100.779 97.7202 100.536 97.5336 100.343 97.2979C99.9318 96.7502 99.7264 96.0652 99.7645 95.371C99.7541 94.8895 99.8425 94.4112 100.024 93.9681C100.185 93.5878 100.452 93.2666 100.79 93.0457C101.128 92.8248 101.521 92.7144 101.92 92.7286C102.325 92.718 102.725 92.8295 103.071 93.0498C103.401 93.267 103.661 93.5831 103.816 93.9569C103.998 94.4016 104.086 94.8819 104.075 95.3654C104.088 95.8495 103.997 96.3304 103.811 96.7739C103.654 97.1468 103.397 97.464 103.071 97.6866C102.725 97.9069 102.325 98.0184 101.92 98.0078ZM101.92 97.0782C102.092 97.0851 102.263 97.0475 102.417 96.9689C102.572 96.8903 102.705 96.7729 102.806 96.6274C103.036 96.2521 103.148 95.8105 103.125 95.3654C103.149 94.9201 103.038 94.4781 102.806 94.1034C102.701 93.9619 102.567 93.8474 102.414 93.7685C102.26 93.6897 102.091 93.6487 101.92 93.6487C101.749 93.6487 101.58 93.6897 101.426 93.7685C101.273 93.8474 101.138 93.9619 101.034 94.1034C100.799 94.479 100.688 94.9237 100.715 95.371C100.688 95.8148 100.8 96.2556 101.034 96.6274C101.133 96.7761 101.265 96.8967 101.42 96.9783C101.575 97.06 101.747 97.1001 101.92 97.0951V97.0782Z" fill="#F4F2EC"/>
<path d="M105.28 97.9065V92.864H106.22V93.5007C106.312 93.2721 106.466 93.0763 106.663 92.9373C106.861 92.8106 107.089 92.7443 107.322 92.7457C107.61 92.7385 107.89 92.8452 108.105 93.0443L107.97 93.957C107.868 93.8738 107.753 93.809 107.63 93.7655C107.507 93.7263 107.38 93.7073 107.252 93.7091C107.059 93.705 106.87 93.7641 106.711 93.8782C106.552 94.0024 106.429 94.17 106.355 94.3627C106.263 94.5948 106.219 94.8442 106.225 95.0951V97.9122L105.28 97.9065Z" fill="#F4F2EC"/>
<path d="M109.472 92.0412C109.396 92.0433 109.321 92.0288 109.252 91.9987C109.182 91.9686 109.119 91.9236 109.067 91.8666C108.959 91.7536 108.898 91.6007 108.898 91.4412C108.898 91.2818 108.959 91.1288 109.067 91.0158C109.119 90.9588 109.182 90.9138 109.252 90.8837C109.321 90.8536 109.396 90.8391 109.472 90.8412C109.548 90.8383 109.624 90.8524 109.695 90.8826C109.766 90.9127 109.83 90.9581 109.882 91.0158C109.938 91.0708 109.981 91.1374 110.01 91.2112C110.039 91.285 110.053 91.3644 110.05 91.444C110.053 91.5237 110.039 91.6031 110.01 91.6769C109.981 91.7507 109.938 91.8173 109.882 91.8722C109.829 91.9289 109.765 91.9733 109.694 92.0025C109.624 92.0316 109.548 92.0448 109.472 92.0412ZM109.002 97.9063V92.8638H109.947V97.9063H109.002Z" fill="#F4F2EC"/>
<path d="M112.891 98.0079C112.436 98.0343 111.99 97.8723 111.649 97.5571C111.495 97.3958 111.375 97.2027 111.297 96.9902C111.219 96.7777 111.184 96.5505 111.195 96.3233C111.188 96.0154 111.267 95.7121 111.422 95.45C111.579 95.2012 111.803 95.0054 112.065 94.8866C112.369 94.7393 112.702 94.6679 113.037 94.6781C113.253 94.6786 113.469 94.7032 113.68 94.7513C113.869 94.8003 114.051 94.8762 114.22 94.9767V94.6274C114.232 94.4861 114.216 94.3438 114.173 94.2091C114.131 94.0744 114.062 93.9503 113.972 93.8443C113.869 93.7521 113.75 93.6823 113.621 93.6388C113.492 93.5952 113.356 93.5789 113.221 93.5907C112.976 93.594 112.734 93.6378 112.502 93.7203C112.248 93.813 112.007 93.9399 111.784 94.0978L111.514 93.2921C111.779 93.1123 112.068 92.9755 112.373 92.8865C112.683 92.791 113.005 92.7417 113.329 92.74C113.572 92.7208 113.816 92.7522 114.047 92.8325C114.278 92.9128 114.491 93.0403 114.674 93.2076C114.834 93.3943 114.956 93.6129 115.033 93.8501C115.11 94.0873 115.141 94.3382 115.122 94.588V97.9008H114.22V97.4444C114.042 97.6248 113.83 97.7665 113.599 97.8614C113.374 97.9553 113.134 98.005 112.891 98.0079ZM113.059 97.1571C113.278 97.1572 113.495 97.1031 113.691 96.9993C113.896 96.8927 114.08 96.7453 114.231 96.5655V95.8049C114.061 95.7078 113.879 95.634 113.691 95.5852C113.515 95.5358 113.333 95.5093 113.151 95.5063C112.871 95.4919 112.595 95.5709 112.362 95.7317C112.269 95.8014 112.195 95.894 112.145 96.0012C112.095 96.1083 112.071 96.2267 112.076 96.3458C112.07 96.4608 112.09 96.5756 112.134 96.6812C112.178 96.7868 112.245 96.8803 112.33 96.9543C112.541 97.1184 112.802 97.1966 113.064 97.174L113.059 97.1571Z" fill="#F4F2EC"/>
<path d="M120.73 98.0078C120.33 98.0195 119.936 97.9068 119.599 97.684C119.261 97.4613 118.994 97.1385 118.834 96.757C118.65 96.3246 118.559 95.8552 118.569 95.3823C118.557 94.894 118.649 94.4091 118.839 93.9625C119.004 93.5913 119.268 93.2781 119.601 93.061C119.928 92.8665 120.297 92.759 120.674 92.7482C121.05 92.7374 121.424 92.8236 121.761 92.9991C122.077 93.1784 122.333 93.4535 122.496 93.7878C122.699 94.208 122.796 94.6754 122.777 95.1456C122.777 95.2245 122.777 95.3147 122.777 95.4274C122.777 95.54 122.777 95.6471 122.777 95.7654H119.536C119.557 96.0217 119.623 96.2718 119.73 96.5035C119.829 96.7043 119.976 96.875 120.157 96.9993C120.343 97.12 120.559 97.1808 120.778 97.1739C120.981 97.1836 121.184 97.1456 121.371 97.0627C121.558 96.9799 121.724 96.8542 121.859 96.695L122.399 97.3148C122.201 97.528 121.967 97.7001 121.707 97.8218C121.4 97.9622 121.065 98.0259 120.73 98.0078ZM119.498 94.9316H121.826C121.827 94.6897 121.781 94.4502 121.691 94.2273C121.611 94.0339 121.48 93.868 121.313 93.7484C121.138 93.6314 120.932 93.5724 120.724 93.5794C120.415 93.5722 120.115 93.6892 119.887 93.9061C119.758 94.0436 119.657 94.2067 119.59 94.3859C119.523 94.565 119.492 94.7563 119.498 94.9485V94.9316Z" fill="#F4F2EC"/>
<path d="M128.827 98.008C128.382 98.0232 127.94 97.9164 127.547 97.6982C127.203 97.5046 126.911 97.2236 126.699 96.8812C126.481 96.5365 126.322 96.1554 126.229 95.7544C126.127 95.3344 126.077 94.9029 126.078 94.4698C126.077 94.0424 126.128 93.6165 126.229 93.2022C126.328 92.8013 126.49 92.4205 126.71 92.0753C126.926 91.7302 127.219 91.4443 127.563 91.2415C127.951 91.0239 128.387 90.917 128.827 90.9316C129.187 90.9201 129.546 90.9852 129.881 91.1232C130.15 91.2381 130.394 91.4087 130.599 91.6246C130.775 91.8113 130.921 92.0263 131.031 92.2613L130.172 92.7064C130.073 92.5498 129.961 92.4027 129.837 92.2669C129.716 92.1428 129.573 92.0435 129.416 91.9739C129.185 91.8855 128.937 91.8513 128.692 91.8737C128.446 91.8961 128.208 91.9745 127.995 92.1035C127.769 92.2659 127.584 92.4822 127.455 92.7345C127.315 93.0008 127.215 93.2877 127.158 93.5853C127.1 93.8858 127.071 94.1915 127.072 94.498C127.071 94.8181 127.104 95.1373 127.169 95.4502C127.229 95.7467 127.337 96.0305 127.487 96.2896C127.621 96.531 127.806 96.7372 128.028 96.8925C128.266 97.0458 128.542 97.1241 128.822 97.1178C129.117 97.1158 129.404 97.0129 129.637 96.8249C129.855 96.6529 130.038 96.4386 130.178 96.1939L131.058 96.5319C130.937 96.8098 130.773 97.0648 130.572 97.2869C130.365 97.5252 130.113 97.7169 129.832 97.8503C129.51 97.9713 129.169 98.0249 128.827 98.008Z" fill="#F4F2EC"/>
<path d="M134.229 98.0077C133.932 98.022 133.635 97.9655 133.362 97.8425C133.089 97.7195 132.846 97.5332 132.652 97.2978C132.243 96.7489 132.038 96.0648 132.074 95.371C132.064 94.8889 132.154 94.4104 132.338 93.9681C132.495 93.5937 132.754 93.2761 133.084 93.0553C133.427 92.8315 133.825 92.7178 134.229 92.7286C134.634 92.7163 135.034 92.828 135.38 93.0497C135.711 93.2722 135.969 93.5945 136.12 93.9737C136.466 94.8781 136.466 95.8864 136.12 96.7908C135.96 97.1628 135.701 97.4795 135.374 97.7035C135.029 97.9183 134.631 98.0239 134.229 98.0077ZM134.229 97.0781C134.401 97.085 134.572 97.0475 134.726 96.9688C134.881 96.8902 135.014 96.7729 135.115 96.6274C135.348 96.2531 135.46 95.8107 135.434 95.3653C135.461 94.9198 135.349 94.4769 135.115 94.1033C135.011 93.9618 134.876 93.8473 134.723 93.7685C134.569 93.6896 134.4 93.6486 134.229 93.6486C134.058 93.6486 133.889 93.6896 133.735 93.7685C133.582 93.8473 133.448 93.9618 133.343 94.1033C133.111 94.4801 133 94.9239 133.024 95.371C133 95.8144 133.112 96.2544 133.343 96.6274C133.442 96.7756 133.575 96.8959 133.73 96.9776C133.884 97.0592 134.056 97.0995 134.229 97.095V97.0781Z" fill="#F4F2EC"/>
<path d="M137.589 97.9065V92.864H138.534V93.3711C138.674 93.1691 138.86 93.0065 139.075 92.8978C139.301 92.7929 139.546 92.741 139.793 92.7457C140.035 92.7288 140.277 92.7709 140.5 92.8687C140.723 92.9666 140.921 93.1173 141.079 93.3091C141.399 93.7855 141.552 94.3627 141.511 94.943V97.9234H140.571V94.9486C140.594 94.6085 140.504 94.2705 140.317 93.9908C140.23 93.8804 140.119 93.7931 139.993 93.7363C139.867 93.6795 139.73 93.6547 139.593 93.6641C139.447 93.6522 139.3 93.6743 139.162 93.7288C139.025 93.7834 138.901 93.869 138.799 93.9796C138.603 94.2528 138.509 94.5913 138.534 94.9317V97.9065H137.589Z" fill="#F4F2EC"/>
<path d="M144.893 98.0079C144.51 98.0147 144.134 97.9029 143.812 97.6867C143.494 97.4657 143.247 97.1495 143.105 96.7796C142.928 96.3334 142.844 95.8536 142.856 95.3711C142.843 94.8881 142.93 94.4078 143.11 93.9626C143.258 93.5913 143.508 93.2738 143.828 93.0499C144.161 92.8304 144.548 92.7186 144.941 92.7287C145.338 92.7139 145.73 92.8259 146.065 93.0499C146.38 93.2772 146.612 93.6087 146.724 93.9908L145.838 94.3175C145.771 94.1224 145.651 93.952 145.492 93.8274C145.336 93.708 145.146 93.6465 144.952 93.6527C144.786 93.6467 144.622 93.685 144.475 93.7638C144.327 93.8427 144.201 93.9596 144.109 94.1034C143.893 94.4862 143.789 94.9272 143.812 95.3711C143.786 95.8117 143.89 96.25 144.109 96.6275C144.197 96.7701 144.319 96.8862 144.463 96.9643C144.607 97.0424 144.768 97.0797 144.93 97.0726C145.143 97.0783 145.352 97.011 145.525 96.8811C145.698 96.7383 145.821 96.5404 145.876 96.3176L146.762 96.6163C146.656 97.0272 146.42 97.3887 146.092 97.6417C145.74 97.895 145.32 98.0234 144.893 98.0079Z" fill="#F4F2EC"/>
<path d="M149.916 98.0078C149.514 98.023 149.117 97.9119 148.776 97.6889C148.435 97.4659 148.166 97.1412 148.004 96.757C147.82 96.3246 147.73 95.8552 147.739 95.3823C147.728 94.894 147.82 94.4091 148.01 93.9625C148.174 93.5913 148.439 93.2781 148.771 93.061C149.099 92.8665 149.467 92.759 149.844 92.7482C150.221 92.7374 150.595 92.8236 150.932 92.9991C151.248 93.1784 151.504 93.4535 151.667 93.7878C151.87 94.208 151.967 94.6754 151.948 95.1456C151.948 95.2245 151.948 95.3147 151.948 95.4274C151.948 95.54 151.948 95.6471 151.948 95.7654H148.706C148.728 96.0217 148.794 96.2718 148.901 96.5035C149 96.7043 149.147 96.875 149.328 96.9993C149.514 97.12 149.73 97.1808 149.949 97.1739C150.152 97.1836 150.354 97.1456 150.541 97.0627C150.728 96.9799 150.895 96.8542 151.029 96.695L151.569 97.3148C151.372 97.528 151.137 97.7001 150.878 97.8218C150.575 97.9596 150.246 98.0232 149.916 98.0078ZM148.685 94.9316H151.013C151.014 94.6897 150.968 94.4502 150.878 94.2273C150.797 94.0339 150.666 93.868 150.5 93.7484C150.324 93.6314 150.119 93.5724 149.911 93.5794C149.602 93.5722 149.302 93.6892 149.074 93.9061C148.945 94.0436 148.844 94.2067 148.777 94.3859C148.71 94.565 148.679 94.7563 148.685 94.9485V94.9316Z" fill="#F4F2EC"/>
<path d="M154.541 98.0078C154.189 98.008 153.843 97.9272 153.525 97.7712C153.22 97.6253 152.952 97.4073 152.742 97.1345L153.395 96.5711C153.546 96.753 153.73 96.9023 153.935 97.0106C154.126 97.1081 154.334 97.1601 154.546 97.1627C154.765 97.1765 154.982 97.1236 155.173 97.0106C155.242 96.9642 155.299 96.8999 155.338 96.8239C155.377 96.7479 155.396 96.6628 155.394 96.5768C155.396 96.4607 155.359 96.3475 155.291 96.2556C155.2 96.1362 155.083 96.0399 154.951 95.9739C154.739 95.8618 154.521 95.764 154.297 95.681C153.875 95.5392 153.484 95.3113 153.147 95.0105C153.034 94.8901 152.946 94.7471 152.887 94.5903C152.829 94.4335 152.801 94.266 152.806 94.0978C152.802 93.9087 152.841 93.7213 152.921 93.5516C153.001 93.3819 153.119 93.2348 153.266 93.1231C153.614 92.8608 154.036 92.7279 154.465 92.7456C154.789 92.7414 155.109 92.8106 155.405 92.9484C155.686 93.0763 155.935 93.2689 156.134 93.5118L155.497 94.0752C155.366 93.925 155.205 93.8055 155.026 93.7249C154.848 93.6443 154.654 93.6043 154.459 93.6076C154.271 93.5994 154.084 93.6463 153.919 93.7428C153.857 93.7803 153.806 93.8346 153.77 93.9001C153.735 93.9655 153.718 94.0397 153.719 94.1147C153.723 94.1964 153.746 94.2759 153.786 94.3458C153.827 94.4158 153.884 94.4739 153.952 94.5147C154.214 94.6884 154.497 94.8248 154.794 94.9203C155.099 95.0234 155.39 95.1673 155.659 95.3485C155.861 95.479 156.029 95.6613 156.145 95.8781C156.25 96.0904 156.302 96.3268 156.296 96.5655C156.304 96.7692 156.266 96.9719 156.184 97.1571C156.103 97.3423 155.98 97.5045 155.826 97.6303C155.452 97.9058 154.998 98.039 154.541 98.0078Z" fill="#F4F2EC"/>
<path d="M159.051 98.0077C158.7 98.0079 158.353 97.9271 158.036 97.7711C157.73 97.6266 157.461 97.4084 157.252 97.1345L157.901 96.571C158.054 96.7505 158.237 96.8994 158.441 97.0105C158.631 97.1073 158.839 97.1593 159.051 97.1626C159.271 97.1752 159.491 97.1225 159.683 97.0105C159.753 96.9641 159.81 96.8998 159.848 96.8238C159.887 96.7479 159.907 96.6627 159.905 96.5767C159.903 96.4612 159.867 96.3491 159.802 96.2555C159.708 96.1386 159.592 96.0427 159.462 95.9738C159.25 95.8617 159.032 95.7639 158.808 95.6809C158.386 95.5391 157.995 95.3112 157.657 95.0104C157.544 94.8902 157.455 94.7475 157.396 94.5907C157.336 94.4339 157.308 94.2662 157.312 94.0977C157.308 93.9082 157.349 93.7207 157.43 93.551C157.51 93.3813 157.629 93.2345 157.776 93.123C158.124 92.8599 158.546 92.7269 158.976 92.7455C159.299 92.7419 159.62 92.8111 159.916 92.9483C160.196 93.0762 160.446 93.2688 160.645 93.5117L160.007 94.0751C159.876 93.9249 159.716 93.8054 159.537 93.7248C159.358 93.6442 159.165 93.6042 158.97 93.6075C158.782 93.5993 158.594 93.6462 158.43 93.7427C158.367 93.7799 158.315 93.8341 158.279 93.8995C158.243 93.9648 158.224 94.0391 158.225 94.1146C158.229 94.196 158.252 94.2752 158.293 94.3449C158.333 94.4147 158.39 94.473 158.457 94.5146C158.722 94.6869 159.007 94.8232 159.305 94.9203C159.609 95.0256 159.899 95.1694 160.169 95.3484C160.372 95.4789 160.539 95.6612 160.656 95.8781C160.76 96.0903 160.812 96.3267 160.807 96.5654C160.815 96.7691 160.777 96.9718 160.695 97.157C160.613 97.3422 160.491 97.5044 160.337 97.6303C159.962 97.9057 159.509 98.0389 159.051 98.0077Z" fill="#F4F2EC"/>
<path d="M163.967 98.0078C163.67 98.0226 163.373 97.9663 163.1 97.8432C162.826 97.7202 162.583 97.5337 162.39 97.2979C161.979 96.7502 161.773 96.0653 161.812 95.3711C161.801 94.8895 161.89 94.4112 162.071 93.9682C162.232 93.5879 162.499 93.2666 162.837 93.0458C163.175 92.8249 163.568 92.7144 163.967 92.7287C164.372 92.7181 164.772 92.8296 165.118 93.0498C165.448 93.267 165.708 93.5832 165.863 93.9569C166.045 94.4017 166.134 94.882 166.122 95.3654C166.135 95.8496 166.044 96.3305 165.858 96.774C165.701 97.1483 165.442 97.4659 165.112 97.6867C164.769 97.9077 164.371 98.0193 163.967 98.0078ZM164.712 92.0526C164.546 92.0531 164.382 92.0226 164.226 91.9625C164.08 91.9061 163.94 91.8441 163.81 91.7822C163.703 91.729 163.593 91.6819 163.481 91.6413C163.376 91.598 163.264 91.577 163.151 91.5793C163.042 91.5773 162.936 91.613 162.849 91.6808C162.805 91.723 162.769 91.7743 162.745 91.8315C162.721 91.8888 162.708 91.9506 162.708 92.0132H162.238C162.235 91.7907 162.27 91.5694 162.341 91.3596C162.396 91.184 162.506 91.0331 162.654 90.9314C162.817 90.8278 163.004 90.775 163.194 90.7793C163.364 90.7767 163.533 90.8072 163.691 90.8694C163.843 90.9258 163.983 90.9878 164.113 91.0497C164.242 91.1117 164.334 91.1568 164.437 91.1962C164.536 91.2397 164.643 91.2626 164.75 91.2638C164.863 91.2663 164.972 91.2263 165.058 91.1511C165.103 91.1099 165.14 91.0587 165.164 91.0012C165.188 90.9438 165.2 90.8815 165.199 90.8187H165.669C165.673 91.039 165.64 91.2584 165.571 91.4667C165.511 91.6394 165.402 91.7888 165.258 91.8948C165.097 92.0087 164.907 92.0695 164.712 92.0695V92.0526ZM163.967 97.0782C164.139 97.0846 164.309 97.0469 164.464 96.9683C164.618 96.8897 164.752 96.7726 164.853 96.6275C165.083 96.2521 165.195 95.8106 165.172 95.3654C165.196 94.9202 165.085 94.4782 164.853 94.1034C164.748 93.962 164.614 93.8474 164.461 93.7686C164.307 93.6898 164.138 93.6488 163.967 93.6488C163.796 93.6488 163.627 93.6898 163.473 93.7686C163.32 93.8474 163.185 93.962 163.081 94.1034C162.847 94.4791 162.735 94.9237 162.762 95.3711C162.736 95.8148 162.847 96.2556 163.081 96.6275C163.18 96.7761 163.312 96.8967 163.467 96.9784C163.622 97.06 163.794 97.1001 163.967 97.0951V97.0782Z" fill="#F4F2EC"/>
<path d="M169.293 98.0077C168.881 98.0182 168.475 97.9006 168.126 97.6697C167.799 97.4374 167.54 97.1158 167.376 96.74C167.196 96.3064 167.108 95.8376 167.116 95.3653C167.102 94.8768 167.194 94.3913 167.386 93.9455C167.548 93.5721 167.813 93.258 168.148 93.0441C168.494 92.8297 168.891 92.7204 169.293 92.7286C169.647 92.7236 169.996 92.8107 170.309 92.9821C170.626 93.1611 170.884 93.4361 171.049 93.7709C171.248 94.1924 171.343 94.6592 171.324 95.1287C171.324 95.2076 171.324 95.2977 171.324 95.4104C171.324 95.5231 171.324 95.6301 171.297 95.7484H168.056C168.077 96.0056 168.145 96.2561 168.256 96.4865C168.351 96.6883 168.497 96.8596 168.677 96.9823C168.866 97.1029 169.083 97.1636 169.304 97.157C169.5 97.1588 169.695 97.1205 169.877 97.0443C170.06 96.9565 170.225 96.8321 170.363 96.6781L170.903 97.2978C170.703 97.5111 170.467 97.6831 170.206 97.8049C169.92 97.9411 169.608 98.0103 169.293 98.0077ZM168.062 94.9315H170.39C170.389 94.6893 170.341 94.4498 170.249 94.2272C170.17 94.0346 170.041 93.8687 169.877 93.7483C169.699 93.6331 169.492 93.5743 169.282 93.5793C168.974 93.5733 168.674 93.6902 168.445 93.9061C168.316 94.0432 168.216 94.2065 168.15 94.3857C168.084 94.565 168.054 94.7565 168.062 94.9484V94.9315Z" fill="#F4F2EC"/>
<path d="M173.934 98.0077C173.582 98.0086 173.235 97.9278 172.918 97.7711C172.611 97.6259 172.341 97.4079 172.129 97.1345L172.783 96.571C172.936 96.7505 173.119 96.8994 173.323 97.0105C173.513 97.1073 173.722 97.1593 173.934 97.1626C174.152 97.1764 174.37 97.1235 174.56 97.0105C174.631 96.9652 174.689 96.9013 174.729 96.8252C174.769 96.749 174.789 96.6634 174.787 96.5767C174.785 96.4612 174.749 96.3491 174.684 96.2555C174.589 96.138 174.471 96.0421 174.339 95.9738C174.129 95.8616 173.912 95.7637 173.69 95.6809C173.268 95.5405 172.876 95.3124 172.54 95.0104C172.425 94.891 172.336 94.7484 172.276 94.5914C172.217 94.4344 172.189 94.2664 172.194 94.0977C172.191 93.9082 172.231 93.7207 172.312 93.551C172.393 93.3813 172.512 93.2345 172.659 93.123C173.006 92.8599 173.429 92.7269 173.858 92.7455C174.18 92.7413 174.499 92.8105 174.793 92.9483C175.076 93.0746 175.327 93.2674 175.527 93.5117L174.89 94.0751C174.758 93.9241 174.597 93.8043 174.417 93.7236C174.237 93.643 174.043 93.6034 173.847 93.6075C173.658 93.5987 173.471 93.6456 173.307 93.7427C173.244 93.7799 173.192 93.8341 173.156 93.8995C173.12 93.9648 173.101 94.0391 173.102 94.1146C173.105 94.1963 173.128 94.2758 173.168 94.3458C173.209 94.4157 173.266 94.4738 173.334 94.5146C173.599 94.6869 173.884 94.8232 174.182 94.9203C174.485 95.0247 174.773 95.1685 175.041 95.3484C175.244 95.4707 175.412 95.6488 175.525 95.8633C175.639 96.0779 175.693 96.3207 175.684 96.5654C175.692 96.7691 175.654 96.9718 175.572 97.157C175.49 97.3422 175.368 97.5044 175.214 97.6303C174.841 97.9045 174.389 98.0376 173.934 98.0077Z" fill="#F4F2EC"/>
<path d="M49.8283 89.3649C49.6717 89.3649 49.461 89.3311 49.2125 89.2917C48.8637 89.2382 48.5189 89.1591 48.1807 89.0551C47.1304 88.7074 46.2142 88.0184 45.5662 87.0888C44.9857 86.1662 44.6863 85.082 44.7073 83.9787C44.6936 83.7555 44.6936 83.5315 44.7073 83.3083V77.1615L40.1804 72.9697H28.4419C28.1514 72.9704 27.8679 73.063 27.6288 73.2352C27.3897 73.4074 27.2063 73.6511 27.1028 73.9342C26.9992 74.2174 26.9804 74.5266 27.0488 74.8211C27.1171 75.1156 27.2695 75.3816 27.4858 75.5839L50.671 97.0555C50.8786 97.2465 51.1346 97.371 51.4084 97.4138C51.6822 97.4567 51.962 97.4162 52.2142 97.2972C52.4664 97.1781 52.6802 96.9857 52.8301 96.7429C52.9799 96.5001 53.0593 96.2174 53.0587 95.9287V89.3706H49.8175L49.8283 89.3649Z" fill="#F4F2EC"/>
<path d="M40.6562 71.691L42.0337 72.9643L44.7347 75.4489V68.7782C44.7285 68.3779 44.7592 67.9779 44.8266 67.5837C45.0228 66.2895 45.6832 65.1215 46.674 64.316C47.6912 63.6024 48.895 63.2344 50.1205 63.2624H53.043V58.372C53.0416 57.9784 52.8918 57.6012 52.6259 57.3218C52.3601 57.0425 51.9996 56.8834 51.6222 56.8789H28.4424C28.1505 56.8766 27.8649 56.9674 27.6239 57.1392C27.3829 57.3109 27.198 57.5554 27.094 57.8398C26.99 58.1242 26.9718 58.435 27.0419 58.7305C27.112 59.0261 27.267 59.2921 27.4862 59.4932L40.6562 71.691Z" fill="#F4F2EC"/>
<path d="M60.1627 65.4485C60.1632 65.2176 60.0889 64.9933 59.952 64.8118C59.7202 64.6237 59.4291 64.5332 59.1363 64.5583C57.224 64.5301 54.8525 64.5583 54.8525 64.5583H50.531C50.4067 64.5583 50.2825 64.5583 50.1528 64.5583C49.1783 64.5225 48.2173 64.8041 47.4032 65.364C46.6551 65.9858 46.1641 66.8831 46.0311 67.8711C45.9685 68.1691 45.9359 68.4732 45.9339 68.7782V83.3593C45.9339 83.4945 45.9339 83.6917 45.9339 83.9227C45.9064 84.7832 46.1306 85.6321 46.5767 86.3566C47.0644 87.0536 47.7507 87.5722 48.5376 87.8384C48.8234 87.9227 49.1138 87.9885 49.4074 88.0356C49.618 88.0694 49.8017 88.0863 49.9475 88.0975H54.9282C55.2045 88.0968 55.4806 88.0779 55.7547 88.0412C56.4677 87.9781 57.1608 87.7634 57.7912 87.4102C58.153 87.1973 58.4825 86.9296 58.769 86.6158C59.1116 86.2319 59.3794 85.7822 59.5577 85.2918C59.8387 84.5742 60.0012 83.8123 60.0384 83.0381C60.0789 82.5 60.0789 81.9593 60.0384 81.4211L60.1627 66.3499C60.2119 66.0516 60.2119 65.7468 60.1627 65.4485Z" fill="#F4F2EC"/>
</svg>
