<svg width="156" height="156" viewBox="0 0 156 156" fill="none" xmlns="http://www.w3.org/2000/svg">
<path d="M77.4351 41.2631C76.6171 41.4768 75.9655 42.1249 75.7437 42.9522C75.6536 43.2901 75.6605 43.8278 75.761 44.1588C76.1284 45.3515 77.2687 46.0582 78.4679 45.8341C78.9323 45.7479 79.3517 45.5238 79.6983 45.1791C80.1593 44.7172 80.3845 44.1794 80.3845 43.5383C80.3845 43.1384 80.3187 42.8592 80.1246 42.4696C79.9374 42.087 79.5111 41.6526 79.1368 41.4596C78.6273 41.1976 77.9792 41.1218 77.4351 41.2631Z" fill="#F4F2EC"/>
<path d="M61.8559 45.803C61.842 45.8133 61.8316 53.0524 61.8316 61.8842V77.9413H62.5594H63.2873V65.6072L63.2907 53.2765L63.3843 53.3834C63.4363 53.442 63.6339 53.6729 63.8245 53.9005C64.2785 54.4382 65.3807 55.5344 66.0773 56.1411C68.6941 58.4163 72.4407 60.881 77.2895 63.5147C79.8161 64.8867 81.6149 65.9898 83.4241 67.2791C86.8034 69.6887 89.5692 72.3706 91.3714 74.9939C92.0022 75.9143 92.6226 77.0312 92.9138 77.7689L93.0559 78.1309H93.6208H94.1857L94.1961 61.9704L94.2031 45.8133H93.4752H92.7474L92.7439 48.9916C92.7405 50.7428 92.7266 56.0274 92.7162 60.7363L92.6954 69.3026L92.5949 69.1474C91.8567 68.0305 90.4218 66.4621 89.0042 65.2245C86.3944 62.9528 83.282 60.8466 78.811 58.3336C75.3347 56.3824 72.5967 54.5451 70.2156 52.5664C67.637 50.4222 65.6891 48.2781 64.386 46.158L64.1642 45.7961L63.0204 45.7857C62.3931 45.7823 61.8697 45.7892 61.8559 45.803Z" fill="#F4F2EC"/>
<path d="M77.688 77.6689C77.1578 77.7482 76.7488 77.9585 76.3537 78.3549C76.1319 78.5721 76.0244 78.7134 75.9274 78.9065C75.5739 79.6132 75.5739 80.375 75.9274 81.0782C76.1041 81.4264 76.5478 81.8745 76.8909 82.0503C77.2929 82.2572 77.5979 82.333 78.0173 82.333C78.7105 82.3296 79.265 82.0883 79.7433 81.5781C80.1454 81.1506 80.3325 80.7094 80.3637 80.113C80.4018 79.4201 80.1835 78.8548 79.6809 78.3515C79.4418 78.1102 79.3309 78.0274 79.0917 77.9137C78.9288 77.8344 78.7105 77.7482 78.603 77.7206C78.3362 77.6552 77.9341 77.631 77.688 77.6689Z" fill="#F4F2EC"/>
<path d="M38.766 94.35C36.6414 94.5879 35.0471 96.0047 34.659 98.0041C34.3158 99.7552 34.9397 101.506 36.2706 102.537C37.553 103.53 39.3518 103.819 40.953 103.292C42.3671 102.823 43.4623 101.71 43.8748 100.327C44.0723 99.6553 44.1243 98.7693 44.0065 98.1178C43.646 96.1598 42.2042 94.7464 40.2079 94.4017C39.8335 94.3362 39.123 94.3121 38.766 94.35ZM40.1143 95.0257C40.9288 95.1601 41.7051 95.5634 42.277 96.1564C42.9182 96.8217 43.2613 97.58 43.3584 98.5556C43.4797 99.7552 43.036 101 42.2007 101.81C40.9946 102.975 39.026 103.264 37.4525 102.51C36.0626 101.841 35.2482 100.517 35.2482 98.9245C35.2482 97.0354 36.4578 95.5014 38.2912 95.0705C38.8666 94.9326 39.4627 94.9188 40.1143 95.0257Z" fill="#F4F2EC"/>
<path d="M92.3141 94.4017C91.4615 94.5396 90.7857 94.8774 90.3871 95.3635C90.0509 95.7772 89.9053 96.2012 89.9053 96.7803C89.9053 97.5421 90.1965 98.1006 90.8065 98.5039C91.2536 98.8004 91.666 98.9486 92.9207 99.2657C93.9847 99.5346 94.3417 99.6518 94.7021 99.8414C95.2532 100.134 95.5444 100.538 95.579 101.065C95.6137 101.579 95.4542 102.003 95.1007 102.33C94.6363 102.758 93.9362 102.968 92.99 102.968C91.8844 102.968 90.7684 102.579 90.089 101.958L89.9469 101.827L89.8014 102.068C89.7216 102.203 89.6627 102.334 89.6731 102.361C89.7009 102.43 90.1237 102.758 90.3732 102.909C91.7353 103.716 93.9258 103.792 95.1631 103.068C95.4612 102.892 95.8632 102.482 96.0123 102.192C96.2341 101.765 96.3173 101.296 96.2479 100.848C96.1093 99.9276 95.5374 99.3795 94.3244 98.9934C94.1164 98.9245 93.5619 98.7762 93.0974 98.659C91.874 98.3522 91.4234 98.1695 91.0422 97.8317C90.401 97.2629 90.4183 96.1908 91.0872 95.5772C91.9918 94.743 93.9951 94.7361 95.3884 95.5565C95.5201 95.6358 95.6345 95.6944 95.6414 95.6875C95.6449 95.6841 95.7073 95.5669 95.7766 95.429L95.9013 95.1808L95.8147 95.1153C95.5236 94.8843 94.768 94.5844 94.1615 94.45C93.7317 94.3569 92.7612 94.3293 92.3141 94.4017Z" fill="#F4F2EC"/>
<path d="M22.8749 98.9348V103.485H23.2042H23.5334L23.5404 99.5518L23.5508 95.6151L26.6527 99.5518L29.7512 103.485H30.0389H30.3266L30.3197 98.9417L30.3093 94.4017L29.9731 94.3914L29.6334 94.381L29.6265 98.3143L29.6161 102.244L26.5314 98.3177L23.4468 94.3879H23.1626L22.8749 94.3845V98.9348Z" fill="#F4F2EC"/>
<path d="M48.3388 94.4052C48.325 94.419 48.3146 96.4666 48.3146 98.9589V103.485H48.6612H49.0078V102.006V100.527L50.6818 100.51C51.6002 100.503 52.3835 100.486 52.4217 100.472C52.4806 100.455 52.64 100.658 53.5793 101.968L54.6641 103.485H55.0453H55.4266L55.3607 103.389C55.3261 103.333 54.827 102.63 54.2482 101.827C53.6694 101.024 53.2015 100.348 53.205 100.331C53.2119 100.31 53.3193 100.255 53.4476 100.207C54.4423 99.8207 55.0627 99.0796 55.2429 98.0592C55.2984 97.7524 55.288 97.0768 55.2256 96.77C54.9726 95.5324 54.0576 94.7395 52.5776 94.4672C52.2969 94.4155 51.9711 94.4052 50.3075 94.3914C49.24 94.3845 48.3562 94.3914 48.3388 94.4052ZM52.2137 95.0395C53.5065 95.1877 54.3002 95.7978 54.5324 96.8217C54.6017 97.1319 54.6052 97.7662 54.5359 98.0902C54.4007 98.7349 53.9709 99.2795 53.3679 99.5691C52.7301 99.8759 52.2588 99.9345 50.3525 99.9345H49.0078V97.4697V95.005H50.4565C51.2502 95.005 52.0404 95.0222 52.2137 95.0395Z" fill="#F4F2EC"/>
<path d="M59.6827 98.9348V103.485H60.012H60.3413L60.3482 99.638L60.3586 95.7944L62.2475 99.0348L64.1364 102.279L64.3201 102.268L64.5038 102.261L66.3996 99.0072L68.2955 95.7565L68.3059 99.6208L68.3128 103.485H68.6421H68.9713L68.9644 98.9417L68.954 94.4017H68.6802H68.4064L66.3754 97.8903C65.2594 99.8104 64.3374 101.382 64.327 101.382C64.3166 101.382 63.3982 99.8104 62.2822 97.8903L60.2546 94.4017L59.9669 94.3914L59.6827 94.381V98.9348Z" fill="#F4F2EC"/>
<path d="M76.7211 94.5465C76.6864 94.6188 75.7541 96.632 74.6485 99.0209C73.5428 101.41 72.6244 103.392 72.6071 103.423C72.5759 103.482 72.6036 103.485 72.9467 103.485L73.321 103.482L73.8929 102.216L74.4648 100.951H77.1127H79.7607L79.9652 101.4C80.0761 101.644 80.3429 102.223 80.5544 102.682L80.9391 103.52H81.2961C81.4936 103.52 81.6565 103.513 81.6565 103.506C81.6565 103.499 80.7138 101.455 79.5666 98.9623L77.4732 94.4361L77.13 94.4258L76.7835 94.4155L76.7211 94.5465ZM78.3085 97.7696C78.9496 99.1657 79.473 100.327 79.473 100.345C79.473 100.372 78.7452 100.383 77.1127 100.383C75.0748 100.383 74.7559 100.376 74.7663 100.334C74.794 100.203 77.1023 95.1842 77.1231 95.2049C77.137 95.2187 77.6707 96.3735 78.3085 97.7696Z" fill="#F4F2EC"/>
<path d="M100.476 98.9692V103.52H100.799H101.124L101.145 100.307C101.159 98.5418 101.169 96.4941 101.169 95.7564V94.4189H100.823H100.476V98.9692Z" fill="#F4F2EC"/>
<path d="M106.271 98.9589L106.282 103.502H109.245H112.208V103.209V102.916L109.585 102.906L106.958 102.899V98.659V94.4189H106.611H106.264L106.271 98.9589Z" fill="#F4F2EC"/>
<path d="M113.674 94.4776C113.692 94.5121 114.607 96.5597 115.712 99.0314L117.719 103.523L118.059 103.513L118.402 103.502L120.426 98.99C121.539 96.5046 122.45 94.4604 122.45 94.4466C122.45 94.4328 122.298 94.419 122.11 94.419H121.767L119.937 98.4936C118.932 100.738 118.1 102.582 118.087 102.596C118.076 102.61 117.241 100.772 116.229 98.5177L114.392 94.419H114.018C113.674 94.419 113.647 94.4225 113.674 94.4776Z" fill="#F4F2EC"/>
<path d="M126.231 98.8728C125.098 101.324 124.148 103.375 124.124 103.427L124.076 103.523L124.45 103.513L124.821 103.502L125.393 102.237L125.968 100.969L128.619 100.979L131.267 100.986L131.846 102.244L132.425 103.502L132.792 103.513C133.125 103.52 133.156 103.516 133.135 103.464C133.125 103.433 132.182 101.389 131.042 98.9211L128.969 94.4362L128.63 94.4259L128.29 94.419L126.231 98.8728ZM129.819 97.7973L131 100.383H128.63C126.384 100.383 126.256 100.379 126.28 100.321C126.353 100.131 128.606 95.2119 128.619 95.2119C128.63 95.2119 129.17 96.377 129.819 97.7973Z" fill="#F4F2EC"/>
<path d="M71.238 107.808C70.4963 107.949 69.9695 108.211 69.5051 108.673C68.8986 109.273 68.5936 110.076 68.6352 110.983C68.656 111.49 68.7461 111.841 68.954 112.258C69.3006 112.944 69.8517 113.43 70.6003 113.713C71.4772 114.04 72.5343 113.989 73.3488 113.585C73.7162 113.403 73.9068 113.258 74.2118 112.934C74.5896 112.531 74.7802 112.182 74.9396 111.593C74.9951 111.383 75.0089 111.224 75.0089 110.845C75.0089 110.466 74.9951 110.307 74.9396 110.097C74.7802 109.514 74.593 109.163 74.2257 108.77C73.8097 108.322 73.2725 108.008 72.6764 107.863C72.3021 107.77 71.5846 107.742 71.238 107.808ZM72.5239 108.428C73.3904 108.663 74.0489 109.314 74.2776 110.162C74.3816 110.535 74.3816 111.152 74.2811 111.521C74.0489 112.375 73.4597 112.972 72.5759 113.244C72.2362 113.351 71.4737 113.361 71.1202 113.265C70.3127 113.044 69.668 112.448 69.4011 111.672C69.3249 111.445 69.3041 111.317 69.2902 110.959C69.2729 110.414 69.3318 110.121 69.5502 109.68C69.6784 109.425 69.765 109.307 69.9903 109.087C70.3924 108.694 70.8048 108.477 71.3316 108.384C71.5916 108.335 72.2744 108.363 72.5239 108.428Z" fill="#F4F2EC"/>
<path d="M79.9097 107.798C78.2426 108.039 77.1301 109.394 77.2306 111.048C77.286 111.931 77.6534 112.665 78.3119 113.217C78.6031 113.458 79.1264 113.723 79.5423 113.834C79.7953 113.899 79.9201 113.91 80.4261 113.91C81.1158 113.906 81.3723 113.854 81.8818 113.603C82.1799 113.458 82.5646 113.175 82.6096 113.072C82.6235 113.041 82.5577 112.948 82.4329 112.824L82.2353 112.624L82.062 112.779C81.6704 113.13 81.1956 113.306 80.5786 113.334C79.4869 113.386 78.5857 112.886 78.1421 111.989C77.9307 111.555 77.8648 111.235 77.8891 110.728C77.9376 109.587 78.6308 108.735 79.7537 108.428C80.0622 108.342 80.8247 108.342 81.1366 108.428C81.4347 108.511 81.861 108.732 82.069 108.918L82.2353 109.066L82.4398 108.859L82.6443 108.653L82.4467 108.466C81.8714 107.929 80.8524 107.66 79.9097 107.798Z" fill="#F4F2EC"/>
<path d="M94.7403 107.811C93.3504 108.029 92.3592 108.97 92.127 110.29C92.0715 110.593 92.0819 111.207 92.1443 111.51C92.2968 112.255 92.7023 112.882 93.3193 113.337C93.6866 113.606 94.0818 113.772 94.6155 113.878C95.0071 113.958 95.7627 113.934 96.1613 113.83C96.5599 113.727 97.0347 113.479 97.2946 113.241L97.513 113.041L97.3224 112.848C97.2184 112.741 97.1213 112.655 97.1075 112.655C97.0936 112.655 96.9827 112.734 96.8649 112.831C96.4247 113.182 95.9325 113.344 95.2948 113.344C94.8442 113.344 94.5185 113.275 94.1511 113.103C93.243 112.682 92.7439 111.889 92.7404 110.862C92.737 110.38 92.7924 110.135 93.0039 109.707C93.3227 109.066 93.9154 108.604 94.6467 108.425C94.9621 108.349 95.631 108.349 95.9533 108.428C96.2687 108.504 96.6327 108.684 96.8926 108.894L97.104 109.066L97.305 108.859L97.5095 108.656L97.4229 108.566C97.1941 108.322 96.7401 108.06 96.2999 107.922C95.8078 107.767 95.2567 107.729 94.7403 107.811Z" fill="#F4F2EC"/>
<path d="M47.8501 107.973C47.8051 108.073 47.1847 109.432 46.4638 110.993C45.7464 112.551 45.1606 113.834 45.1606 113.844C45.1606 113.854 45.3131 113.861 45.5003 113.861L45.8365 113.858L46.2004 113.051L46.5608 112.241H48.2453H49.9297L50.2936 113.041L50.6575 113.844L51.0076 113.854L51.3576 113.865L50.7442 112.527C50.408 111.793 49.7807 110.424 49.3509 109.494L48.5745 107.794H48.2522H47.9333L47.8501 107.973ZM49.0112 110.19L49.6905 111.707L48.9696 111.717C48.5711 111.72 47.9195 111.72 47.5244 111.717L46.8034 111.707L47.455 110.259C47.812 109.463 48.1378 108.742 48.1794 108.656C48.2522 108.501 48.2557 108.501 48.2938 108.587C48.3146 108.635 48.6369 109.356 49.0112 110.19Z" fill="#F4F2EC"/>
<path d="M53.6763 107.818C53.6625 107.829 53.6521 109.194 53.6521 110.852V113.861H55.1285C56.4733 113.861 56.6362 113.854 56.9481 113.792C58.1404 113.551 58.9618 112.83 59.2876 111.741C59.3985 111.362 59.4366 110.728 59.3708 110.324C59.1455 108.935 58.1023 107.998 56.5877 107.832C56.2272 107.791 53.7145 107.78 53.6763 107.818ZM56.806 108.449C57.7661 108.646 58.4974 109.332 58.6949 110.228C58.7781 110.597 58.7539 111.338 58.643 111.655C58.5217 112.014 58.338 112.31 58.0746 112.569C57.669 112.965 57.2011 113.186 56.5842 113.272C56.4386 113.292 55.8633 113.31 55.3122 113.31H54.3106V110.845V108.38H55.3954C56.3312 108.38 56.5218 108.39 56.806 108.449Z" fill="#F4F2EC"/>
<path d="M61.024 107.818C61.0171 107.832 61.6167 109.204 62.355 110.862L63.6997 113.878H64.0186H64.3409L65.6857 110.862C66.4239 109.204 67.0304 107.835 67.0304 107.818C67.0304 107.804 66.8918 107.794 66.7185 107.794C66.4343 107.794 66.4031 107.801 66.3581 107.87C66.3338 107.915 65.8001 109.094 65.1762 110.493C64.5523 111.893 64.0324 113.03 64.0255 113.02C64.0186 113.013 63.4918 111.838 62.861 110.411L61.7103 107.811L61.3741 107.801C61.1904 107.798 61.0344 107.804 61.024 107.818Z" fill="#F4F2EC"/>
<path d="M85.5868 110.831C84.8278 112.486 84.2039 113.848 84.2039 113.858C84.2039 113.868 84.3461 113.882 84.5228 113.889C84.8243 113.899 84.8451 113.892 84.8902 113.82C84.9179 113.775 85.0843 113.41 85.2645 113.01L85.5903 112.276H87.2886H88.9869L89.3508 113.086L89.7113 113.896H90.0509C90.2381 113.896 90.3906 113.886 90.3906 113.868C90.3871 113.855 89.7667 112.493 89.0111 110.845L87.6317 107.846L87.299 107.836L86.9697 107.825L85.5868 110.831ZM88.0164 110.121C88.4046 110.99 88.72 111.707 88.7131 111.714C88.7096 111.721 88.0615 111.721 87.2782 111.717L85.8537 111.707L86.5677 110.114C86.9628 109.239 87.2886 108.525 87.2955 108.529C87.299 108.535 87.6248 109.252 88.0164 110.121Z" fill="#F4F2EC"/>
<path d="M100.164 110.862V113.896H100.494H100.823V110.862V107.829H100.494H100.164V110.862Z" fill="#F4F2EC"/>
<path d="M105.89 107.887C105.807 108.046 103.145 113.854 103.145 113.875C103.145 113.889 103.298 113.892 103.481 113.889L103.817 113.879L104.178 113.075L104.542 112.276L106.237 112.283L107.931 112.293L108.288 113.086L108.645 113.879L108.996 113.889L109.349 113.899L109.235 113.648C109.169 113.51 108.541 112.145 107.841 110.611L106.562 107.829H106.24C105.97 107.829 105.914 107.839 105.89 107.887ZM106.958 110.128C107.346 110.997 107.668 111.717 107.675 111.731C107.682 111.748 107.041 111.759 106.244 111.759C104.847 111.759 104.802 111.755 104.819 111.693C104.847 111.583 106.212 108.553 106.233 108.553C106.244 108.553 106.569 109.263 106.958 110.128Z" fill="#F4F2EC"/>
</svg>
