<svg width="156" height="87" viewBox="0 0 156 87" fill="none" xmlns="http://www.w3.org/2000/svg">
<g clip-path="url(#clip0_146_216)">
<rect y="0.378906" width="156" height="83.0847" fill="#D9D9D9"/>
<path d="M0 43.3789V86.3789H78H156V43.3789V0.378906H78H0V43.3789ZM39.1215 17.9676C44.1757 24.5269 45.9252 27.6851 44.4673 27.4422C44.2243 27.4422 41.4056 24.3326 38.2953 20.5427C33.5813 14.9552 32.5607 13.449 32.5607 12.1371C32.5607 11.3111 32.7551 10.5823 32.9981 10.5823C33.2411 10.5823 36.0112 13.8862 39.1215 17.9676ZM39.3159 23.8953C44.7103 30.0659 45.9252 31.9608 44.7589 32.6411C44.5645 32.7868 41.6972 30.0659 38.4411 26.6162C33.1925 20.98 32.5607 20.1055 32.5607 18.5507C32.5607 17.5789 32.7551 16.8987 32.9981 16.9959C33.2411 17.0444 36.0598 20.154 39.3159 23.8953ZM29.6449 20.4456C29.6449 21.4173 29.3047 22.3891 28.8187 22.8264C28.3327 23.2151 23.0355 26.4704 17.0093 30.0659C11.0318 33.6614 5.83178 36.771 5.49159 36.9653C5.00561 37.2569 4.85981 36.9168 4.85981 35.7507C4.85981 34.0015 3.40187 35.0704 24.2991 21.5145C26.5832 20.0569 28.7215 18.8422 29.0617 18.8422C29.4019 18.8422 29.6449 19.4738 29.6449 20.4456ZM39.3159 29.5314C44.6617 34.8761 45.9738 36.771 44.8075 37.4998C44.4187 37.7427 43.2523 36.7224 36.5944 30.6975C33.0467 27.4908 32.5607 26.8591 32.5607 25.3529C32.5607 24.4298 32.7551 23.7009 32.9981 23.7009C33.2411 23.7009 36.0598 26.3247 39.3159 29.5314ZM29.6449 27.0535C29.6449 29.2399 30.1308 28.8998 15.7944 36.3337C11.5178 38.5687 7.58131 40.658 7.04673 41.0467C5.54019 42.067 4.85981 41.8241 4.85981 40.3179C4.85981 39.006 5.49159 38.5687 13.2673 34.0987C17.8355 31.4749 23.2785 28.3653 25.271 27.2478C27.2635 26.0817 29.0617 25.1586 29.2561 25.1586C29.4991 25.1586 29.6449 26.0331 29.6449 27.0535ZM73.1402 29.58C75.8131 30.3088 77.757 31.8151 78.5346 33.71C79.5551 36.1394 79.5065 57.9552 78.486 60.4817C76.9794 64.223 72.1682 65.7778 63.2748 65.3891C57.2 65.1461 53.9925 63.98 52.4374 61.4049C51.5626 59.9959 51.514 59.0241 51.6112 46.6829L51.757 33.467L53.1664 32.0094C54.7215 30.406 56.6168 29.6286 60.4561 28.997C63.4206 28.5597 70.4187 28.8512 73.1402 29.58ZM108.617 29.58C109.686 29.8716 111.29 30.8919 112.359 31.9608C114.157 33.7586 114.206 33.8557 114.206 37.4998V41.2411L109.492 41.0953L104.729 40.9495L104.583 38.18C104.486 35.945 104.243 35.2162 103.368 34.6331C101.813 33.5642 98.3626 33.71 97.1963 34.8761C96.2729 35.7992 96.2243 36.4795 96.2243 46.9258C96.2243 59.9959 96.2729 60.1416 100.161 60.1416C104.243 60.1416 104.486 59.8501 104.486 54.554V49.9382H102.542H100.598V47.2659V44.5936H107.402H114.206V52.6105V60.5789L112.553 62.2795C110.026 64.7574 108.131 65.2433 100.355 65.2433C94.086 65.2433 93.357 65.1461 91.1215 64.0286C89.7607 63.3484 88.2056 62.0851 87.5738 61.1134C86.4561 59.4614 86.4561 59.3156 86.6019 46.78C86.7477 34.5846 86.7963 34.0987 87.8168 32.6411C89.1776 30.7461 91.4617 29.6286 95.1065 29.0456C98.3626 28.5597 105.798 28.8512 108.617 29.58ZM139.817 29.0456C146.037 29.8716 148.419 31.8151 148.905 36.4795C149.439 41.2411 149.391 41.2411 143.899 41.0953L139.234 40.9495L139.088 38.1314C138.942 35.7992 138.748 35.2162 137.727 34.5846C136.318 33.6614 132.333 33.9043 131.652 34.9247C130.972 36.0422 131.118 58.8783 131.798 59.5586C132.576 60.336 137.63 60.336 138.407 59.5586C138.748 59.2185 138.991 57.7122 138.991 56.1574V53.2908L143.996 53.4365L148.953 53.5823L148.856 56.9834C148.71 61.0648 147.933 62.3281 144.531 64.0286C142.295 65.1461 141.664 65.2433 135.103 65.2433C128.542 65.2433 127.91 65.1461 125.675 64.0286C121.301 61.8422 121.252 61.7936 121.107 48.0919C120.912 34.0015 121.155 32.7382 124.654 30.7461C127.862 28.8512 133.45 28.2196 139.817 29.0456ZM37.6636 33.71C44.8561 39.7834 45.1963 40.1235 45.1963 41.484C45.1963 43.1846 44.9047 43.0388 38.1981 37.9857C32.7065 33.8557 32.5607 33.71 32.5607 31.9122C32.5607 30.8433 32.7065 30.0173 32.9495 30.0173C33.1439 30.0173 35.2822 31.6693 37.6636 33.71ZM29.6449 33.5642V35.6535L17.5925 41.0953C10.9832 44.1077 5.39439 46.5371 5.2 46.5371C5.00561 46.5371 4.85981 45.9055 4.85981 45.1281C4.85981 43.8162 5.39439 43.4761 17.1551 37.6456C23.8617 34.293 29.4505 31.5235 29.5477 31.4749C29.5963 31.4749 29.6449 32.3981 29.6449 33.5642ZM39.3645 40.8524C43.4953 43.8162 44.9533 45.1766 45.0019 45.954C45.0505 46.5371 44.9047 47.1687 44.7103 47.2659C44.3215 47.5089 35.0392 42.1642 33.4355 40.8038C32.415 39.9292 32.2206 36.8196 33.1925 36.8196C33.4841 36.8196 36.3028 38.6659 39.3645 40.8524ZM29.6449 40.2207C29.6449 41.9699 29.4505 42.2614 28.0897 42.893C25.0766 44.2049 5.83178 51.3959 5.2486 51.3959C5.05421 51.3959 4.85981 50.7642 4.85981 49.9868C4.85981 48.432 4.61682 48.5778 16.5234 43.6218C19.8766 42.2128 24.0075 40.4636 25.757 39.6862C27.5065 38.9088 29.0617 38.2772 29.3047 38.2772C29.4991 38.2772 29.6449 39.1518 29.6449 40.2207ZM37.8579 45.6625C40.4336 47.023 43.1065 48.5778 43.8841 49.0637C45.1963 49.9868 45.6336 51.5416 44.7103 52.1247C44.4673 52.2704 41.6972 51.2501 38.5383 49.7925L32.8037 47.2173L32.6579 45.1766C32.5607 44.0591 32.6579 43.136 32.8523 43.136C32.9981 43.136 35.2822 44.2535 37.8579 45.6625ZM29.6449 46.9744V48.8693L26.6318 49.8896C21.772 51.4444 5.73458 56.2546 5.2486 56.2546C4.61682 56.2546 4.81121 53.3394 5.49159 53.0964C5.78318 52.9992 10.9832 51.1529 17.0093 49.0151C23.0355 46.8772 28.3327 45.1281 28.8187 45.1281C29.4505 45.0795 29.6449 45.4682 29.6449 46.9744ZM38.9271 51.9303C44.8075 54.2625 45.1963 54.554 45.1963 56.0603C45.1963 57.3235 44.6617 57.4693 42.4748 56.7891C41.6972 56.4975 39.1701 55.7687 36.8374 55.0399L32.5607 53.7766V51.8817C32.5607 50.5213 32.7551 49.9382 33.2411 49.9382C33.6299 49.9382 36.157 50.8614 38.9271 51.9303ZM29.5477 53.6795L29.6935 55.6716L27.3607 56.206C26.0972 56.4975 20.6542 57.7122 15.3084 58.9269C9.96262 60.093 5.39439 61.1134 5.2 61.1134C4.95701 61.1134 4.85981 60.4331 4.95701 59.5586C5.1028 58.1981 5.34579 57.9552 7.28972 57.4207C8.50467 57.1292 11.6636 56.2546 14.3364 55.5258C17.0093 54.797 21.1402 53.6795 23.4729 53.0478C25.8542 52.4648 27.8953 51.8331 28.0897 51.6874C28.7701 50.9586 29.4019 51.8331 29.5477 53.6795ZM38.8299 57.6151C44.4673 59.0241 45.6336 59.7529 45.0505 61.3077C44.7103 62.2309 43.6411 62.1823 36.2056 60.9676C32.9981 60.4331 32.8037 60.2874 32.6579 59.0241C32.5121 57.7608 32.8037 56.2546 33.1439 56.2546C33.2411 56.2546 35.8168 56.8862 38.8299 57.6151ZM29.6449 60.1416C29.6449 61.2591 29.4019 62.2309 29.0617 62.3281C28.7215 62.4738 25.3682 63.0083 21.6262 63.5427C17.8841 64.1258 12.7327 64.8546 10.2056 65.2433C7.6785 65.632 5.39439 65.9721 5.2 65.9721C4.95701 65.9721 4.85981 65.2919 4.95701 64.4173L5.1028 62.9111L16.2804 60.6275C22.4523 59.3642 27.9439 58.2953 28.5757 58.2467C29.4991 58.1981 29.6449 58.4411 29.6449 60.1416ZM44.1271 64.0772C44.9533 64.4173 45.1963 64.8546 45.0991 65.632C44.9533 66.6524 44.8075 66.7009 38.8785 66.7009H32.8037L32.6579 65.3405C32.3664 62.8139 32.5121 62.7168 37.9551 63.2026C40.7252 63.4456 43.4953 63.8343 44.1271 64.0772ZM29.6449 66.8953C29.6449 68.7416 29.5477 68.7902 27.8467 69.0817C26.8262 69.2275 22.5981 69.5676 18.4673 69.8591C14.3364 70.1021 9.57383 70.4908 7.8729 70.6365L4.81121 70.9281L4.95701 69.3247L5.1028 67.7213L12.1495 66.8467C16.0374 66.3122 20.4112 65.7292 21.8692 65.5348C23.3271 65.2919 25.7084 65.0975 27.1178 65.049L29.6449 65.0004V66.8953ZM136.804 69.8591C136.707 70.0535 136.998 70.5879 137.533 71.0738C138.067 71.5597 138.505 72.58 138.505 73.3574C138.505 74.4264 138.164 74.9122 136.901 75.4953C135.394 76.2241 135.103 76.2241 133.791 75.4953C131.701 74.4264 131.555 73.1631 133.256 70.9281C134.374 69.4704 134.957 69.0817 135.88 69.2761C136.512 69.3733 136.95 69.6648 136.804 69.8591ZM36.6916 70.8309C36.5458 71.0738 35.7682 71.3168 34.9421 71.3168C34.0187 71.3168 33.5327 71.5597 33.5327 72.0456C33.5327 72.5314 34.0187 72.7744 35.0392 72.7744C35.8654 72.7744 36.4 72.9687 36.2056 73.2603C36.0598 73.5032 35.3794 73.7461 34.6991 73.7461C33.9701 73.7461 33.5327 74.0377 33.5327 74.475C33.5327 75.0094 34.0673 75.2038 35.3308 75.2038C36.5944 75.2038 36.9832 75.3495 36.5944 75.7382C36.3028 76.0298 35.3308 76.1755 34.4561 76.0783C32.8037 75.9326 32.8037 75.9326 32.6579 73.1145L32.5121 70.345H34.7477C36.1084 70.345 36.886 70.5394 36.6916 70.8309ZM40.7252 71.997C42.329 73.8433 42.7664 73.7947 42.7664 71.7055C42.7664 70.9766 43.0093 70.345 43.2523 70.345C43.5439 70.345 43.7383 71.5597 43.7383 73.0173C43.7383 74.475 43.5439 75.6896 43.2523 75.6896C43.0093 75.6896 42.0374 74.8637 41.0654 73.8433L39.4131 72.0456L39.3645 73.8433C39.3645 74.8637 39.1701 75.6896 38.8785 75.6896C38.6355 75.6896 38.3925 74.475 38.3925 73.0173C38.3925 71.5597 38.5869 70.345 38.8299 70.345C39.0729 70.345 39.8991 71.0738 40.7252 71.997ZM49.9103 71.1224C50.0075 71.4139 49.4243 71.5597 48.4523 71.4139C46.557 71.2196 45.4393 72.2399 45.9252 73.6975C46.2654 74.7665 48.1607 75.5439 49.0355 74.9608C49.3271 74.8151 49.5701 74.232 49.5701 73.6975C49.5701 73.1631 49.8131 72.8716 50.0561 73.0173C50.8822 73.5518 50.5907 75.1552 49.5701 75.6896C47.7234 76.6614 44.7103 75.0094 44.7103 72.9687C44.7103 72.3371 45.1963 71.5111 45.828 71.0738C46.9944 70.2478 49.6187 70.2478 49.9103 71.1224ZM56.1308 70.8795C55.9364 71.1224 55.2075 71.3168 54.5271 71.2196C53.6037 71.1224 53.1664 71.3168 53.0692 71.8998C52.9234 72.58 53.215 72.7744 54.4299 72.7744C55.3047 72.7744 55.8393 72.9687 55.6449 73.2603C55.4991 73.5032 54.8187 73.7461 54.1383 73.7461C53.4093 73.7461 52.972 74.0377 52.972 74.475C52.972 75.0094 53.5065 75.2038 54.7215 75.2038C55.7421 75.2038 56.3252 75.3981 56.1308 75.6896C55.6935 76.3699 52.6804 76.2727 52.1458 75.5439C51.757 75.058 51.6112 72.3371 51.9514 70.6851C51.9514 70.4908 53.0206 70.345 54.2355 70.345C55.6449 70.345 56.3252 70.5394 56.1308 70.8795ZM59.7757 72.0456C60.6991 72.9687 61.6224 73.7461 61.8168 73.7461C62.0112 73.7461 62.2056 72.9687 62.2056 72.0456C62.2056 71.1224 62.4486 70.345 62.6916 70.345C62.9832 70.345 63.1776 71.5597 63.1776 73.0173C63.1776 76.1269 62.5944 76.4185 60.5047 74.232C59.7271 73.406 58.9495 72.7744 58.7065 72.7744C58.5121 72.7744 58.3178 73.406 58.3178 74.232C58.3178 75.0094 58.1234 75.6896 57.8318 75.6896C57.5888 75.6896 57.3458 74.475 57.3458 73.0173C57.3458 71.5597 57.5402 70.345 57.7346 70.345C57.929 70.345 58.8523 71.1224 59.7757 72.0456ZM65.6075 71.6083C65.6075 72.6772 65.7533 72.823 67.1626 72.6772C68.3776 72.58 68.8149 72.2399 69.0093 71.3168C69.4467 69.4704 70.0299 70.9281 69.9327 73.5032C69.7869 75.7868 69.3009 76.3699 68.7663 74.7179C68.572 74.0377 68.0374 73.7461 67.0168 73.7461C65.9477 73.7461 65.6075 73.9891 65.6075 74.7179C65.6075 75.2524 65.4131 75.6896 65.1215 75.6896C64.8785 75.6896 64.6355 74.475 64.6355 73.0173C64.6355 71.5597 64.8785 70.345 65.1215 70.345C65.4131 70.345 65.6075 70.9281 65.6075 71.6083ZM75.6187 72.823C76.8336 75.2524 76.8822 76.467 75.7159 75.3009C74.8897 74.475 72.8972 74.5721 71.828 75.5439C71.2935 76.0298 70.9533 76.1269 70.9533 75.7382C70.9533 74.8151 73.3832 70.345 73.8692 70.345C74.1121 70.345 74.8897 71.4625 75.6187 72.823ZM82.1308 71.0738C82.6168 71.6569 82.6168 72.0942 82.1794 73.0659C81.7421 74.0377 81.7421 74.5235 82.1794 75.0094C82.6168 75.5439 82.5682 75.6896 81.985 75.6896C81.5963 75.6896 81.1589 75.3495 80.9645 74.9608C80.8187 74.5721 80.2841 74.232 79.7495 74.232C79.2635 74.232 78.729 74.5721 78.5346 74.9608C78.3888 75.3495 78.0486 75.6896 77.757 75.6896C77.2224 75.6896 77.1252 71.6083 77.6112 70.6851C78 70.0535 81.4991 70.345 82.1308 71.0738ZM84.5607 73.0173C84.5607 74.475 84.3664 75.6896 84.0748 75.6896C83.8318 75.6896 83.5888 74.475 83.5888 73.0173C83.5888 71.5597 83.8318 70.345 84.0748 70.345C84.3664 70.345 84.5607 71.5597 84.5607 73.0173ZM90.4411 73.1631C91.1701 74.5721 91.5589 75.8354 91.3159 75.9812C91.0729 76.1269 90.7327 75.884 90.5869 75.4953C90.1981 74.475 87.3308 74.475 86.5047 75.4467C85.3383 76.8557 85.4841 75.7868 86.7963 73.0659C87.5252 71.5597 88.3514 70.3936 88.643 70.4908C88.9346 70.5879 89.7607 71.8026 90.4411 73.1631ZM98.6542 70.8309C98.6542 71.0738 97.8766 71.3168 96.9047 71.3168C94.6692 71.3168 94.9121 72.4343 97.2449 72.823C98.8486 73.0659 98.6056 73.5032 96.5645 73.8433C95.0579 74.0863 95.3981 74.9608 97.0991 75.1066C99.4318 75.3495 98.9944 76.2727 96.6131 76.0783C94.5234 75.9326 94.5234 75.9326 94.3776 73.7947C94.2804 72.6286 94.329 71.3653 94.4748 71.0252C94.7663 70.2478 98.6542 70.0535 98.6542 70.8309ZM106.187 70.8309C106.381 71.1224 105.895 71.3168 105.021 71.3168C103.077 71.3168 102.639 72.1913 104.34 72.58C107.207 73.2603 107.742 74.7179 105.507 75.6896C104.437 76.1269 103.854 76.1269 103.077 75.6896C101.57 74.9122 101.813 74.6207 103.708 74.9608C105.798 75.3981 106.527 74.4264 104.632 73.6975C102.493 72.9201 102.007 72.3371 102.591 71.2682C103.077 70.2964 105.652 69.9563 106.187 70.8309ZM113.234 71.4139C114.449 72.7258 114.497 73.8433 113.379 74.8151C111.144 76.8072 107.402 75.884 107.402 73.406C107.402 70.4908 111.193 69.2275 113.234 71.4139ZM117.413 75.2038C118.434 75.2038 119.017 75.3981 118.822 75.6896C118.385 76.3699 116.004 76.3213 115.275 75.5925C114.643 74.9608 114.449 71.2196 115.08 70.6365C115.275 70.4422 115.469 71.3653 115.566 72.7258L115.712 75.2038H117.413ZM121.35 74.7665C122.467 75.884 123.682 75.0094 123.828 73.0173C124.071 70.1507 124.897 69.6648 124.897 72.4343C124.897 74.3292 124.703 74.8151 123.682 75.4953C121.787 76.71 120.232 75.8354 119.794 73.3088C119.6 72.2399 119.649 71.0738 119.892 70.7337C120.135 70.345 120.378 70.8309 120.572 72.1913C120.718 73.3088 121.058 74.475 121.35 74.7665ZM131.458 70.8309C131.652 71.1224 131.069 71.3168 130.049 71.3168C127.959 71.3168 126.647 72.4829 127.327 73.7461C127.91 74.8637 129.417 75.3981 130.729 74.9608C131.847 74.6207 132.09 75.4467 130.972 75.884C130.583 76.0298 130.243 76.467 130.243 76.9043C130.243 77.3416 129.806 77.6331 129.174 77.5846C128.105 77.5846 128.105 77.536 129.028 77.1959C129.903 76.8557 129.854 76.7586 128.445 75.9812C126.987 75.2524 125.869 73.8919 125.869 72.9201C125.869 72.6772 126.307 71.997 126.841 71.4139C127.91 70.2964 130.875 69.9077 131.458 70.8309ZM144.093 70.8309C143.948 71.0738 143.17 71.3168 142.344 71.3168C141.421 71.3168 140.935 71.5597 140.935 72.0456C140.935 72.5314 141.421 72.7744 142.441 72.7744C143.267 72.7744 143.802 72.9687 143.607 73.2603C143.462 73.5032 142.781 73.7461 142.101 73.7461C141.372 73.7461 140.935 74.0377 140.935 74.475C140.935 74.9608 141.469 75.2038 142.636 75.2038C143.559 75.2038 144.336 75.4467 144.336 75.7382C144.336 76.0298 143.51 76.1755 142.295 76.0783L140.206 75.9326L140.06 73.1145L139.914 70.345H142.15C143.51 70.345 144.288 70.5394 144.093 70.8309ZM148.953 70.7823C149.099 71.0252 148.516 71.3168 147.641 71.4139C145.6 71.6083 145.6 72.3371 147.641 72.8716C149.439 73.3574 149.779 74.8637 148.273 75.6896C147.009 76.3213 146.669 76.3213 145.551 75.4953C144.725 74.8637 144.774 74.8151 146.329 74.9122C148.564 74.9608 148.856 74.1834 146.815 73.5032C144.92 72.8716 144.434 72.0942 145.308 71.0738C145.989 70.2478 148.516 70.1021 148.953 70.7823ZM29.4019 73.5032V75.4467L17.1551 75.5925L4.85981 75.6896V74.0377V72.4343L15.1626 71.9484C20.8486 71.6569 26.3888 71.4625 27.4579 71.5111C29.4019 71.5597 29.4019 71.5597 29.4019 73.5032Z" fill="black"/>
<path d="M62.3514 34.6331C61.2336 35.4105 61.2336 35.5563 61.2336 47.2659C61.2336 60.7733 60.9906 60.1416 65.5589 60.1416C69.4467 60.1416 69.4953 59.9473 69.4953 47.023C69.4953 38.6173 69.3495 35.8478 68.8635 35.1676C67.9402 33.9043 63.8093 33.5642 62.3514 34.6331Z" fill="black"/>
<path d="M133.45 72.0942C132.43 73.0659 133.207 74.5722 134.908 75.0094C136.609 75.4467 137.776 74.2806 137.338 72.5801C137.095 71.5597 136.707 71.3168 135.637 71.3168C134.86 71.3168 133.839 71.6569 133.45 72.0942Z" fill="black"/>
<path d="M73.2374 72.7258C72.9458 73.8433 73.6748 74.6207 74.4038 73.8919C74.6467 73.649 74.5981 73.1145 74.2094 72.5314C73.5776 71.7055 73.529 71.7055 73.2374 72.7258Z" fill="black"/>
<path d="M78.729 72.2885C78.729 73.1145 78.972 73.3088 80.0898 73.1631C80.8673 73.0659 81.4019 72.7258 81.4019 72.2885C81.4019 71.8512 80.8673 71.5111 80.0898 71.4139C78.972 71.2682 78.729 71.4625 78.729 72.2885Z" fill="black"/>
<path d="M88.3028 72.0942C87.8168 72.6287 87.914 74.2321 88.4 74.2321C88.6916 74.2321 89.0318 74.0377 89.1776 73.7462C89.5663 73.1631 88.7402 71.6569 88.3028 72.0942Z" fill="black"/>
<path d="M109.006 71.6569C107.985 72.0456 108.277 74.1349 109.394 74.7179C111.533 75.884 113.768 74.2321 112.748 72.24C112.262 71.3654 110.415 71.0739 109.006 71.6569Z" fill="black"/>
</g>
<defs>
<clipPath id="clip0_146_216">
<rect width="156" height="86" fill="white" transform="translate(0 0.378906)"/>
</clipPath>
</defs>
</svg>
