<svg width="1305" height="241" viewBox="0 0 1305 241" fill="none" xmlns="http://www.w3.org/2000/svg">
<path d="M49.0313 194.5C28.1979 194.5 12.0313 185.917 0.531251 168.75V155.25C5.03125 165.25 11.5313 173.083 20.0313 178.75C28.6979 184.417 39.0313 187.25 51.0313 187.25C59.3646 187.25 67.0313 185.417 74.0313 181.75C81.1979 178.083 86.8646 172.917 91.0313 166.25C95.1979 159.583 97.2813 151.917 97.2813 143.25C97.2813 135.417 95.9479 128.667 93.2813 123C90.6146 117.333 86.1979 111.917 80.0313 106.75C73.8646 101.417 64.9479 95.1667 53.2813 88L45.2813 83C37.9479 78.5 32.0313 74.5 27.5313 71C23.0313 67.5 19.1146 63.4167 15.7813 58.75C11.4479 52.25 9.28125 44.75 9.28125 36.25C9.28125 24.9167 12.9479 16.0833 20.2813 9.74999C27.6146 3.41666 36.9479 0.249997 48.2813 0.249997C63.6146 0.249997 75.7813 5.91666 84.7813 17.25V30C80.9479 23 75.6979 17.5 69.0313 13.5C62.3646 9.49999 55.0313 7.49999 47.0313 7.49999C38.6979 7.49999 31.6979 10.0833 26.0313 15.25C20.3646 20.4167 17.5313 27.3333 17.5313 36C17.5313 44.5 20.1146 51.8333 25.2813 58C30.6146 64 39.5313 70.5833 52.0313 77.75C67.3646 86.75 79.2813 94.9167 87.7813 102.25C93.7813 107.75 98.1146 113.833 100.781 120.5C103.615 127.167 105.031 134.583 105.031 142.75C105.031 153.083 102.615 162.167 97.7813 170C92.9479 177.833 86.2813 183.917 77.7813 188.25C69.2813 192.417 59.6979 194.5 49.0313 194.5ZM180.77 193.75C164.936 193.75 152.686 189.417 144.02 180.75C135.52 172.083 131.27 159.833 131.27 144V78.5H139.27V144C139.27 157.667 142.853 168.25 150.02 175.75C157.353 183.083 167.603 186.75 180.77 186.75C188.77 186.75 196.103 185 202.77 181.5C209.436 177.833 214.686 172.75 218.52 166.25C222.353 159.75 224.27 152.333 224.27 144V78.5H232.27V191H224.27V170C220.436 177 214.686 182.75 207.02 187.25C199.353 191.583 190.603 193.75 180.77 193.75ZM263.838 78.5H271.838V106C276.338 97 283.338 89.75 292.838 84.25C302.338 78.5833 312.338 75.75 322.838 75.75C333.671 75.75 343.588 78.4167 352.588 83.75C361.755 89.0833 369.005 96.25 374.338 105.25C379.671 114.25 382.338 124.083 382.338 134.75C382.338 145.417 379.671 155.25 374.338 164.25C369.005 173.25 361.755 180.417 352.588 185.75C343.588 191.083 333.671 193.75 322.838 193.75C312.671 193.75 302.838 191 293.338 185.5C284.005 180 276.838 172.75 271.838 163.75V241H263.838V78.5ZM323.338 186.75C332.505 186.75 341.005 184.417 348.838 179.75C356.671 174.917 362.838 168.583 367.338 160.75C372.005 152.75 374.338 144.083 374.338 134.75C374.338 125.583 372.005 117 367.338 109C362.671 101 356.421 94.6667 348.588 90C340.755 85.1667 332.255 82.75 323.088 82.75C313.921 82.75 305.338 85.1667 297.338 90C289.505 94.8333 283.171 101.25 278.338 109.25C273.671 117.25 271.338 125.833 271.338 135C271.338 144.167 273.671 152.75 278.338 160.75C283.171 168.583 289.588 174.917 297.588 179.75C305.588 184.417 314.171 186.75 323.338 186.75ZM460.893 195C449.559 195 439.309 192.25 430.143 186.75C420.976 181.083 413.809 173.667 408.643 164.5C403.476 155.167 400.893 145.083 400.893 134.25C400.893 123.583 403.476 113.667 408.643 104.5C413.976 95.3333 421.143 88.0833 430.143 82.75C439.309 77.25 449.476 74.5 460.643 74.5C471.643 74.5 481.643 77.25 490.643 82.75C499.809 88.0833 506.976 95.3333 512.143 104.5C517.309 113.667 519.893 123.583 519.893 134.25C519.893 145.417 517.393 155.667 512.393 165C507.393 174.167 500.393 181.5 491.393 187C482.559 192.333 472.393 195 460.893 195ZM460.893 188C470.393 188 479.059 185.583 486.893 180.75C494.726 175.917 500.809 169.5 505.143 161.5C509.643 153.333 511.893 144.417 511.893 134.75C511.893 125.25 509.643 116.417 505.143 108.25C500.643 100.083 494.476 93.5833 486.643 88.75C478.809 83.9167 470.143 81.5 460.643 81.5C451.143 81.5 442.393 84 434.393 89C426.559 93.8333 420.309 100.333 415.643 108.5C411.143 116.667 408.893 125.5 408.893 135C408.893 144.5 411.143 153.333 415.643 161.5C420.309 169.5 426.559 175.917 434.393 180.75C442.393 185.583 451.226 188 460.893 188ZM542.402 78.5H550.402V104.5C553.736 96.3333 558.569 89.9167 564.902 85.25C571.402 80.5833 578.736 78.25 586.902 78.25C592.069 78.25 597.319 79.3333 602.652 81.5V90.75C597.819 87.0833 592.402 85.25 586.402 85.25C580.402 85.25 574.569 87.0833 568.902 90.75C563.402 94.4167 558.902 99.3333 555.402 105.5C552.069 111.667 550.402 118.25 550.402 125.25V191H542.402V78.5ZM662.73 192.5C650.397 192.5 640.147 188.75 631.98 181.25C623.98 173.75 619.98 163.417 619.98 150.25V33.25H627.98V78.5H662.48V85.5H627.98V150.25C627.98 161.25 631.23 169.917 637.73 176.25C644.397 182.417 652.73 185.5 662.73 185.5V192.5ZM738.51 187C747.176 187 755.426 184.75 763.26 180.25C771.093 175.75 777.593 169.583 782.76 161.75V174.5C776.593 181.333 769.843 186.333 762.51 189.5C755.176 192.5 746.843 194 737.51 194C727.176 194 717.426 191.25 708.26 185.75C699.26 180.25 692.01 172.917 686.51 163.75C681.176 154.583 678.51 144.833 678.51 134.5C678.51 123.333 681.176 113.333 686.51 104.5C691.843 95.5 699.093 88.5 708.26 83.5C717.593 78.5 727.926 76 739.26 76C756.593 76 771.343 82.8333 783.51 96.5L705.01 174C710.51 178.5 715.843 181.833 721.01 184C726.176 186 732.01 187 738.51 187ZM686.51 133.75C686.51 147.583 691.093 159.417 700.26 169.25L773.51 96.5C768.01 91.6667 762.676 88.25 757.51 86.25C752.343 84.0833 746.176 83 739.01 83C728.843 83 719.76 85.25 711.76 89.75C703.926 94.0833 697.76 100.083 693.26 107.75C688.76 115.417 686.51 124.083 686.51 133.75ZM916.447 193.75C905.614 193.75 895.614 191.083 886.447 185.75C877.447 180.417 870.281 173.25 864.947 164.25C859.614 155.25 856.947 145.417 856.947 134.75C856.947 124.083 859.614 114.25 864.947 105.25C870.281 96.25 877.447 89.0833 886.447 83.75C895.614 78.4167 905.614 75.75 916.447 75.75C926.947 75.75 936.947 78.5833 946.447 84.25C955.947 89.75 962.947 97 967.447 106V3.49999H975.447V191H967.447V163.75C962.447 172.75 955.197 180 945.697 185.5C936.364 191 926.614 193.75 916.447 193.75ZM916.197 186.75C925.364 186.75 933.864 184.417 941.697 179.75C949.697 174.917 956.031 168.583 960.697 160.75C965.531 152.75 967.947 144.167 967.947 135C967.947 125.833 965.531 117.25 960.697 109.25C956.031 101.25 949.697 94.8333 941.697 90C933.864 85.1667 925.364 82.75 916.197 82.75C907.031 82.75 898.531 85.1667 890.697 90C882.864 94.6667 876.614 101 871.947 109C867.281 117 864.947 125.583 864.947 134.75C864.947 144.083 867.197 152.75 871.697 160.75C876.364 168.583 882.614 174.917 890.447 179.75C898.447 184.417 907.031 186.75 916.197 186.75ZM1061.75 187C1070.42 187 1078.67 184.75 1086.5 180.25C1094.34 175.75 1100.84 169.583 1106 161.75V174.5C1099.84 181.333 1093.09 186.333 1085.75 189.5C1078.42 192.5 1070.09 194 1060.75 194C1050.42 194 1040.67 191.25 1031.5 185.75C1022.5 180.25 1015.25 172.917 1009.75 163.75C1004.42 154.583 1001.75 144.833 1001.75 134.5C1001.75 123.333 1004.42 113.333 1009.75 104.5C1015.09 95.5 1022.34 88.5 1031.5 83.5C1040.84 78.5 1051.17 76 1062.5 76C1079.84 76 1094.59 82.8333 1106.75 96.5L1028.25 174C1033.75 178.5 1039.09 181.833 1044.25 184C1049.42 186 1055.25 187 1061.75 187ZM1009.75 133.75C1009.75 147.583 1014.34 159.417 1023.5 169.25L1096.75 96.5C1091.25 91.6667 1085.92 88.25 1080.75 86.25C1075.59 84.0833 1069.42 83 1062.25 83C1052.09 83 1043 85.25 1035 89.75C1027.17 94.0833 1021 100.083 1016.5 107.75C1012 115.417 1009.75 124.083 1009.75 133.75ZM1219.44 10.75H1176.19V3.49999H1270.44V10.75H1227.69V191H1219.44V10.75ZM1296.68 3.49999H1304.93V191H1296.68V3.49999Z" fill="#F4F2EC" fill-opacity="0.3"/>
</svg>
